<svg width="17" height="17" viewBox="0 0 17 17" fill="none" xmlns="http://www.w3.org/2000/svg">
<path d="M10.4598 1.43953C10.4821 1.35624 10.5205 1.27816 10.573 1.20975C10.6254 1.14134 10.6909 1.08393 10.7655 1.04081C10.8402 0.997697 10.9226 0.969712 11.0081 0.958458C11.0936 0.947205 11.1804 0.952904 11.2637 0.97523C12.4803 1.29265 13.5902 1.92863 14.4793 2.81768C15.3683 3.70673 16.0043 4.8167 16.3217 6.03328C16.3441 6.11655 16.3498 6.2034 16.3385 6.28888C16.3272 6.37435 16.2993 6.45677 16.2561 6.53143C16.213 6.60608 16.1556 6.67151 16.0872 6.72398C16.0188 6.77644 15.9407 6.81491 15.8574 6.83718C15.802 6.85177 15.7449 6.85921 15.6876 6.85933C15.5431 6.85938 15.4026 6.81172 15.288 6.72377C15.1733 6.63581 15.0909 6.51247 15.0535 6.37289C14.7948 5.3796 14.2758 4.4733 13.5501 3.74743C12.8243 3.02156 11.9181 2.50238 10.9249 2.24343C10.8415 2.22124 10.7634 2.18284 10.6949 2.13041C10.6264 2.07799 10.5689 2.01257 10.5257 1.93791C10.4825 1.86324 10.4544 1.78079 10.4431 1.69528C10.4318 1.60976 10.4375 1.52285 10.4598 1.43953ZM10.2686 4.86843C11.3999 5.17031 12.1267 5.89792 12.4285 7.02914C12.4659 7.16872 12.5483 7.29206 12.663 7.38002C12.7776 7.46797 12.9181 7.51563 13.0626 7.51558C13.1199 7.51546 13.177 7.50802 13.2324 7.49343C13.3157 7.47116 13.3938 7.43269 13.4622 7.38023C13.5306 7.32776 13.588 7.26233 13.6311 7.18768C13.6743 7.11302 13.7022 7.0306 13.7135 6.94513C13.7248 6.85965 13.7191 6.7728 13.6967 6.68953C13.2767 5.11781 12.1792 4.02023 10.6074 3.60023C10.4393 3.5553 10.2601 3.57902 10.1094 3.66617C9.95876 3.75332 9.84886 3.89676 9.80394 4.06494C9.75901 4.23311 9.78273 4.41224 9.86988 4.56293C9.95703 4.71361 10.1005 4.82351 10.2686 4.86843ZM16.2102 11.3268L12.3457 9.59507L12.335 9.59015C12.1344 9.50434 11.9155 9.46991 11.6983 9.48996C11.481 9.51001 11.2721 9.58392 11.0906 9.705C11.0692 9.71909 11.0487 9.73443 11.0291 9.75093L9.03243 11.4531C7.76751 10.8387 6.46158 9.54257 5.84716 8.29406L7.55177 6.26707C7.56818 6.24656 7.58376 6.22605 7.59853 6.2039C7.717 6.02286 7.78889 5.81534 7.80778 5.5998C7.82667 5.38427 7.79198 5.1674 7.70681 4.96851V4.95867L5.97021 1.08761C5.85761 0.82779 5.66401 0.611351 5.41829 0.470605C5.17258 0.329859 4.88793 0.272354 4.60685 0.306675C3.4953 0.452942 2.475 0.998829 1.73652 1.84238C0.998037 2.68593 0.59187 3.76945 0.593879 4.89058C0.593879 11.4039 5.8931 16.7031 12.4064 16.7031C13.5275 16.7051 14.611 16.2989 15.4546 15.5604C16.2981 14.822 16.844 13.8017 16.9903 12.6901C17.0247 12.4091 16.9673 12.1246 16.8267 11.8788C16.6861 11.6331 16.4698 11.4395 16.2102 11.3268Z" fill="#698468"/>
</svg>
