<svg width="36" height="36" viewBox="0 0 36 36" fill="none" xmlns="http://www.w3.org/2000/svg">
<g clip-path="url(#clip0_13_442)">
<path d="M34.08 15.5254L31.32 13.3054C31.0986 13.1288 30.927 12.8977 30.8218 12.6347C30.7166 12.3718 30.6815 12.086 30.72 11.8054L31.095 8.29544C31.1471 7.82904 31.0938 7.3569 30.939 6.91386C30.7843 6.47081 30.5321 6.06815 30.2009 5.73559C29.8698 5.40303 29.4683 5.14905 29.0259 4.99239C28.5835 4.83573 28.1116 4.78039 27.645 4.83044L24.12 5.20544C23.8394 5.2439 23.5537 5.20883 23.2907 5.10365C23.0278 4.99847 22.7966 4.82679 22.62 4.60544L20.445 1.89044C20.1409 1.54066 19.7652 1.2602 19.3434 1.06801C18.9216 0.87582 18.4635 0.776367 18 0.776367C17.5365 0.776367 17.0784 0.87582 16.6566 1.06801C16.2348 1.2602 15.8591 1.54066 15.555 1.89044L13.335 4.65044C13.1583 4.87179 12.9272 5.04347 12.6643 5.14865C12.4013 5.25383 12.1156 5.2889 11.835 5.25044L8.355 4.87544C7.88838 4.82539 7.41648 4.88073 6.97411 5.03739C6.53173 5.19405 6.13018 5.44803 5.79906 5.78059C5.46793 6.11315 5.2157 6.51581 5.06096 6.95886C4.90622 7.40191 4.85292 7.87404 4.905 8.34044L5.28 11.8504C5.31846 12.131 5.28339 12.4168 5.17821 12.6797C5.07303 12.9427 4.90135 13.1738 4.68 13.3504L1.92 15.5254C1.55396 15.8192 1.25855 16.1914 1.05556 16.6146C0.852573 17.0377 0.747192 17.5011 0.747192 17.9704C0.747192 18.4398 0.852573 18.9031 1.05556 19.3263C1.25855 19.7495 1.55396 20.1217 1.92 20.4154L4.68 22.6354C4.90022 22.813 5.07107 23.0443 5.17614 23.307C5.28121 23.5697 5.31698 23.8549 5.28 24.1354L4.905 27.6604C4.85301 28.1258 4.90696 28.597 5.06282 29.0386C5.21868 29.4802 5.4724 29.8808 5.805 30.2104C6.12992 30.5496 6.52994 30.8077 6.97284 30.964C7.41575 31.1204 7.88917 31.1705 8.355 31.1104L11.88 30.7354C12.1606 30.697 12.4463 30.7321 12.7093 30.8372C12.9722 30.9424 13.2033 31.1141 13.38 31.3354L15.6 34.0954C15.8938 34.4615 16.266 34.7569 16.6891 34.9599C17.1123 35.1629 17.5757 35.2682 18.045 35.2682C18.5143 35.2682 18.9777 35.1629 19.4009 34.9599C19.824 34.7569 20.1962 34.4615 20.49 34.0954L22.71 31.3354C22.8867 31.1141 23.1178 30.9424 23.3807 30.8372C23.6437 30.7321 23.9294 30.697 24.21 30.7354L27.735 31.1104C28.2008 31.1705 28.6742 31.1204 29.1172 30.964C29.5601 30.8077 29.9601 30.5496 30.285 30.2104C30.6176 29.8808 30.8713 29.4802 31.0272 29.0386C31.183 28.597 31.237 28.1258 31.185 27.6604L30.81 24.1354C30.773 23.8549 30.8088 23.5697 30.9139 23.307C31.0189 23.0443 31.1898 22.813 31.41 22.6354L34.17 20.4154C34.536 20.1217 34.8315 19.7495 35.0344 19.3263C35.2374 18.9031 35.3428 18.4398 35.3428 17.9704C35.3428 17.5011 35.2374 17.0377 35.0344 16.6146C34.8315 16.1914 34.536 15.8192 34.17 15.5254H34.08ZM18.6 22.5754C18.3689 22.8763 18.0766 23.1247 17.7425 23.3043C17.4083 23.484 17.0399 23.5908 16.6615 23.6177C16.2831 23.6446 15.9033 23.5911 15.5471 23.4605C15.1909 23.33 14.8664 23.1255 14.595 22.8604L10.935 19.2004C10.7951 19.0606 10.6842 18.8945 10.6085 18.7118C10.5328 18.5291 10.4939 18.3332 10.4939 18.1354C10.4939 17.9376 10.5328 17.7418 10.6085 17.5591C10.6842 17.3763 10.7951 17.2103 10.935 17.0704C11.0749 16.9306 11.2409 16.8196 11.4236 16.7439C11.6064 16.6683 11.8022 16.6293 12 16.6293C12.1978 16.6293 12.3936 16.6683 12.5764 16.7439C12.7591 16.8196 12.9251 16.9306 13.065 17.0704L16.5 20.4454L22.365 12.6304C22.6037 12.3122 22.959 12.1018 23.3529 12.0455C23.5479 12.0177 23.7465 12.0285 23.9373 12.0774C24.1281 12.1263 24.3074 12.2122 24.465 12.3304C24.6226 12.4486 24.7554 12.5967 24.8557 12.7662C24.9561 12.9357 25.0221 13.1233 25.0499 13.3183C25.0778 13.5133 25.067 13.7119 25.0181 13.9027C24.9692 14.0935 24.8832 14.2729 24.765 14.4304L18.6 22.5754Z" fill="#EFEFEC"/>
</g>
<defs>
<clipPath id="clip0_13_442">
<rect width="36" height="36" fill="white"/>
</clipPath>
</defs>
</svg>
