<svg width="180" height="180" viewBox="0 0 180 180" fill="none" xmlns="http://www.w3.org/2000/svg">
<g clip-path="url(#clip0_12_302)">
<circle cx="90.0305" cy="90.1252" r="64.0817" fill="#EFEFEC"/>
<path d="M157.693 130.778C158.298 129.736 159.148 129.069 160.241 128.779C161.344 128.494 162.412 128.652 163.445 129.251C164.478 129.851 165.14 130.697 165.43 131.791C165.73 132.89 165.577 133.96 164.972 135.003C164.576 135.686 164.054 136.203 163.406 136.554C162.767 136.911 162.093 137.063 161.384 137.009L161.39 135.662C161.86 135.7 162.313 135.6 162.749 135.359C163.179 135.128 163.528 134.782 163.796 134.32C164.198 133.628 164.3 132.911 164.102 132.167C163.899 131.433 163.447 130.862 162.746 130.455C162.054 130.054 161.339 129.947 160.601 130.135C159.858 130.332 159.285 130.777 158.883 131.469C158.616 131.93 158.481 132.407 158.479 132.899C158.486 133.397 158.618 133.849 158.875 134.257L157.685 134.936C157.312 134.325 157.12 133.646 157.109 132.9C157.108 132.159 157.302 131.452 157.693 130.778ZM156.855 146.327L150.46 141.52L151.277 140.433L155.92 143.922L154.174 139.428L154.28 139.287L159.083 139.714L154.44 136.225L155.267 135.125L161.662 139.931L160.768 141.121L156.023 140.697L157.749 145.137L156.855 146.327ZM145.113 148.677C145.103 147.523 145.506 146.524 146.322 145.682C147.139 144.839 148.124 144.405 149.278 144.379C150.424 144.361 151.422 144.764 152.273 145.588C153.123 146.412 153.557 147.397 153.575 148.543C153.586 149.697 153.183 150.696 152.366 151.538C151.55 152.381 150.564 152.815 149.411 152.841C148.257 152.867 147.255 152.467 146.405 151.643C145.554 150.819 145.124 149.831 145.113 148.677ZM147.299 146.628C146.742 147.203 146.47 147.874 146.482 148.644C146.494 149.413 146.791 150.08 147.373 150.644C147.956 151.208 148.631 151.484 149.4 151.472C150.17 151.46 150.833 151.166 151.389 150.592C151.939 150.025 152.207 149.357 152.195 148.588C152.183 147.819 151.886 147.152 151.304 146.588C150.722 146.024 150.046 145.748 149.277 145.76C148.507 145.772 147.848 146.061 147.299 146.628ZM143.103 159.684L142.241 158.653L144.328 156.908L140.058 151.802L141.125 150.909L145.395 156.015L147.494 154.259L148.356 155.29L143.103 159.684ZM137.86 163.514C136.928 164.137 135.906 164.326 134.794 164.082C133.687 163.846 132.808 163.241 132.156 162.265C131.504 161.29 131.278 160.241 131.478 159.12C131.683 158.007 132.252 157.14 133.183 156.517C134.283 155.782 135.414 155.661 136.577 156.154L134.035 152.349L135.192 151.576L141.416 160.888L140.258 161.661L139.494 160.517C139.504 161.78 138.959 162.78 137.86 163.514ZM134.076 157.537C133.411 157.981 133.004 158.581 132.854 159.336C132.709 160.099 132.863 160.818 133.313 161.492C133.764 162.166 134.366 162.578 135.121 162.728C135.881 162.887 136.594 162.744 137.259 162.299C137.933 161.849 138.342 161.242 138.486 160.478C138.636 159.724 138.486 159.01 138.036 158.336C137.585 157.662 136.98 157.245 136.219 157.086C135.465 156.936 134.75 157.086 134.076 157.537ZM129.119 163.185C128.676 162.607 128.137 162.256 127.503 162.132C126.859 162.012 126.198 162.121 125.521 162.459C124.576 162.931 124.062 163.622 123.981 164.533L122.621 164.461C122.78 163.034 123.56 161.971 124.963 161.271C126.099 160.704 127.201 160.596 128.269 160.945C129.333 161.308 130.136 162.034 130.679 163.122C131.217 164.2 131.317 165.271 130.977 166.335C130.638 167.398 129.914 168.206 128.807 168.759C127.757 169.283 126.717 169.337 125.687 168.921C124.652 168.519 123.875 167.798 123.356 166.758C123.266 166.577 123.187 166.383 123.121 166.178L129.119 163.185ZM128.221 167.585C128.889 167.251 129.348 166.784 129.596 166.183C129.85 165.592 129.872 164.955 129.662 164.273L124.881 166.659C125.324 167.284 125.848 167.666 126.454 167.805C127.06 167.944 127.649 167.871 128.221 167.585ZM117.641 173.252L117.167 171.995L119.712 171.035L117.363 164.807L118.666 164.316L121.015 170.544L123.575 169.578L124.049 170.836L117.641 173.252ZM111.731 171.925C110.959 172.134 110.258 172.076 109.627 171.749C108.99 171.436 108.572 170.914 108.374 170.183C108.176 169.452 108.271 168.785 108.66 168.182C109.042 167.592 109.619 167.193 110.391 166.983L113.649 166.1L115.743 173.821L114.399 174.185L113.646 171.406L111.731 171.925ZM110.73 168.234C110.349 168.337 110.059 168.532 109.861 168.818C109.654 169.117 109.601 169.452 109.702 169.823C109.802 170.193 110.017 170.455 110.346 170.609C110.665 170.766 111.015 170.793 111.396 170.689L113.311 170.17L112.645 167.715L110.73 168.234ZM97.476 173.385C96.6215 173.139 96.1437 172.57 96.0427 171.68C95.9682 171.023 96.1295 170.457 96.5266 169.982C96.9143 169.52 97.5161 169.242 98.3322 169.15L102.307 168.699L103.208 176.648L99.5516 177.063C98.7567 177.153 98.1192 177.021 97.6389 176.668C97.1599 176.325 96.8838 175.83 96.8104 175.184C96.7239 174.42 96.9458 173.821 97.476 173.385ZM99.4746 175.815L101.716 175.561L101.48 173.479L99.2384 173.733C98.4329 173.824 98.0704 174.225 98.151 174.935C98.2279 175.613 98.6691 175.907 99.4746 175.815ZM98.5542 170.397C98.1514 170.442 97.8549 170.573 97.6645 170.787C97.4636 171.003 97.3829 171.286 97.4226 171.636C97.4599 171.965 97.6 172.206 97.843 172.361C98.0766 172.528 98.3948 172.589 98.7975 172.543L101.341 172.254L101.098 170.108L98.5542 170.397ZM88.534 177.529L87.414 177.536L87.366 169.536L88.742 169.528L88.7757 175.143L93.1739 169.501L94.2939 169.494L94.3419 177.494L92.9659 177.502L92.9322 171.886L88.534 177.529ZM78.2734 169.962L77.1765 169.837L77.5701 166.387L78.9372 166.543L78.6942 168.673L84.6555 169.353L84.8985 167.223L86.2657 167.379L85.8721 170.829L84.9024 170.718C84.3139 171.36 83.9477 172.311 83.8038 173.572L83.383 177.26L77.5171 176.591L78.2734 169.962ZM83.3286 170.539L79.6405 170.118L79.0311 175.459L82.1628 175.817L82.4366 173.416C82.5721 172.229 82.8694 171.27 83.3286 170.539ZM74.462 171.316C74.4887 170.588 74.2974 169.974 73.8881 169.474C73.4683 168.971 72.8896 168.634 72.1519 168.463C71.1234 168.224 70.2872 168.429 69.6433 169.079L68.6422 168.156C69.6735 167.158 70.9529 166.837 72.4801 167.192C73.7165 167.479 74.635 168.098 75.2355 169.048C75.8232 170.006 75.9794 171.077 75.7041 172.262C75.4313 173.436 74.825 174.324 73.8855 174.927C72.9459 175.53 71.8735 175.691 70.6683 175.411C69.5254 175.146 68.6897 174.524 68.1612 173.547C67.6199 172.578 67.4808 171.527 67.744 170.395C67.7899 170.198 67.8526 169.999 67.9321 169.798L74.462 171.316ZM70.9653 174.133C71.6926 174.302 72.3435 174.235 72.918 173.93C73.4902 173.636 73.913 173.159 74.1867 172.5L68.9815 171.29C68.9243 172.055 69.0848 172.683 69.463 173.176C69.8412 173.669 70.342 173.988 70.9653 174.133ZM60.4603 164.651C61.5107 164.173 62.5867 164.137 63.6881 164.541C64.7896 164.946 65.5861 165.67 66.0777 166.714C66.5593 167.754 66.5961 168.83 66.188 169.942C65.7799 171.053 65.0557 171.85 64.0153 172.331C62.9649 172.809 61.889 172.846 60.7875 172.441C59.6861 172.037 58.8895 171.313 58.3979 170.269C57.9063 169.225 57.8646 168.147 58.2726 167.035C58.6807 165.924 59.4099 165.129 60.4603 164.651ZM63.2194 165.818C62.4684 165.542 61.7438 165.566 61.0457 165.889C60.3475 166.212 59.8587 166.754 59.5793 167.515C59.2999 168.276 59.3218 169.006 59.645 169.704C59.9682 170.402 60.5053 170.889 61.2562 171.165C61.9972 171.437 62.7168 171.411 63.4149 171.088C64.1131 170.765 64.6019 170.223 64.8813 169.462C65.1607 168.701 65.1388 167.971 64.8156 167.273C64.4924 166.575 63.9604 166.09 63.2194 165.818ZM44.5809 164.346L48.5646 157.408L49.7718 158.102L46.4494 163.887L50.043 165.951L53.3654 160.165L54.5726 160.858L50.5889 167.796L44.5809 164.346ZM38.3356 160.136C37.4417 159.461 36.9272 158.558 36.7921 157.427C36.6506 156.304 36.9333 155.275 37.6403 154.339C38.3472 153.402 39.2631 152.844 40.388 152.664C41.5064 152.493 42.5125 152.744 43.4064 153.419C44.462 154.216 44.9484 155.245 44.8655 156.505L47.6226 152.853L48.7336 153.692L41.9853 162.631L40.8743 161.792L41.7034 160.694C40.5138 161.119 39.3912 160.933 38.3356 160.136ZM42.7371 154.598C42.0986 154.116 41.3984 153.928 40.6364 154.034C39.8681 154.149 39.2397 154.53 38.7512 155.177C38.2628 155.824 38.0717 156.529 38.1781 157.291C38.2781 158.061 38.6473 158.687 39.2858 159.169C39.9328 159.658 40.6405 159.845 41.4089 159.73C42.1708 159.623 42.796 159.247 43.2844 158.6C43.7729 157.953 43.9671 157.244 43.8672 156.473C43.7608 155.711 43.3841 155.086 42.7371 154.598ZM33.2719 146.069C34.4259 146.06 35.4236 146.464 36.2652 147.282C37.1068 148.099 37.5397 149.085 37.5639 150.239C37.5805 151.385 37.1762 152.383 36.3512 153.232C35.5262 154.081 34.5405 154.514 33.3942 154.531C32.2402 154.54 31.2424 154.136 30.4008 153.318C29.5593 152.501 29.1264 151.515 29.1021 150.361C29.0779 149.207 29.4783 148.206 30.3033 147.357C31.1284 146.507 32.1179 146.078 33.2719 146.069ZM35.3175 148.257C34.7437 147.7 34.0722 147.427 33.303 147.438C32.5337 147.449 31.8666 147.745 31.3018 148.327C30.7369 148.908 30.46 149.583 30.4711 150.353C30.4822 151.122 30.7747 151.785 31.3485 152.343C31.9146 152.893 32.5823 153.162 33.3516 153.151C34.1209 153.14 34.7879 152.844 35.3528 152.262C35.9177 151.681 36.1946 151.005 36.1834 150.236C36.1723 149.467 35.8837 148.807 35.3175 148.257ZM22.1389 143.797L21.4331 142.928L27.6445 137.886L28.5117 138.954L24.1512 142.494L31.3047 142.395L32.0106 143.265L25.7991 148.307L24.932 147.238L29.2924 143.699L22.1389 143.797ZM20.6106 134.799C20.4308 133.86 20.7206 133.142 21.4801 132.647C22.043 132.28 22.6666 132.191 23.3511 132.382C24.0266 132.578 24.6324 133.087 25.1684 133.909C26.0424 135.249 26.0919 136.497 25.3169 137.652L24.1026 137.049C24.6663 136.312 24.6568 135.497 24.0741 134.604C23.7828 134.157 23.4647 133.874 23.1197 133.755C22.76 133.633 22.4283 133.671 22.1245 133.869C21.8565 134.044 21.7046 134.29 21.6688 134.606C21.6272 134.913 21.7172 135.237 21.9386 135.576L22.5766 136.554L21.5178 137.245L21.0459 136.521C20.8245 136.182 20.5722 135.971 20.289 135.888C19.9969 135.811 19.7078 135.866 19.4219 136.052C19.136 136.239 18.9766 136.502 18.9435 136.842C18.9047 137.173 19.0105 137.53 19.2611 137.914C19.7505 138.665 20.3998 138.967 21.209 138.822L21.28 140.132C19.9884 140.299 18.958 139.793 18.1889 138.614C17.7111 137.881 17.5229 137.182 17.6243 136.518C17.7199 135.844 18.0402 135.33 18.5852 134.974C19.2643 134.531 19.9394 134.473 20.6106 134.799ZM16.4713 127.316C16.3939 126.429 16.7523 125.779 17.5467 125.365C18.133 125.059 18.7189 125.006 19.3044 125.205C19.8755 125.401 20.3511 125.862 20.7311 126.59L22.5818 130.136L15.4895 133.838L13.7869 130.575C13.4168 129.866 13.3102 129.224 13.4672 128.649C13.6147 128.078 13.9769 127.643 14.5538 127.342C15.2346 126.986 15.8738 126.978 16.4713 127.316ZM14.9229 130.055L15.9667 132.055L17.8249 131.085L16.7811 129.085C16.406 128.366 15.9017 128.172 15.2681 128.503C14.6629 128.819 14.5478 129.336 14.9229 130.055ZM19.6475 127.246C19.46 126.887 19.2318 126.657 18.9629 126.557C18.689 126.447 18.3961 126.473 18.084 126.636C17.7909 126.789 17.6157 127.007 17.5586 127.289C17.4871 127.567 17.5451 127.886 17.7326 128.245L18.9171 130.515L20.832 129.516L19.6475 127.246ZM15.6078 116.997C16.6586 117.474 17.3938 118.26 17.8134 119.356C18.2331 120.452 18.2113 121.528 17.748 122.585C17.2809 123.632 16.4945 124.367 15.3888 124.791C14.2831 125.214 13.2067 125.192 12.1598 124.725C11.109 124.248 10.3738 123.462 9.95411 122.366C9.53447 121.27 9.5563 120.194 10.0196 119.137C10.4829 118.08 11.2674 117.34 12.3731 116.916C13.4787 116.493 14.557 116.52 15.6078 116.997ZM16.5434 119.843C16.2573 119.095 15.7629 118.565 15.0604 118.252C14.3578 117.938 13.628 117.926 12.8709 118.216C12.1139 118.506 11.5786 119.003 11.2652 119.705C10.9517 120.408 10.938 121.133 11.2242 121.88C11.5065 122.617 11.9989 123.142 12.7015 123.456C13.4041 123.769 14.1339 123.781 14.8909 123.491C15.648 123.201 16.1832 122.705 16.4967 122.002C16.8101 121.299 16.8257 120.58 16.5434 119.843ZM12.7598 107.878L12.4861 106.808L15.8498 105.948L16.1908 107.281L14.1137 107.812L15.6008 113.625L17.6779 113.094L18.0189 114.427L14.6553 115.287L14.4134 114.342C13.6044 114.02 12.5851 114.017 11.3554 114.331L7.7592 115.251L6.29592 109.531L12.7598 107.878ZM14.0208 112.807L13.1008 109.211L7.89252 110.543L8.67373 113.597L11.0144 112.998C12.1717 112.702 13.1739 112.638 14.0208 112.807ZM13.2969 101.557C13.4598 102.752 13.1989 103.799 12.5144 104.7C11.8192 105.602 10.8798 106.134 9.69608 106.295C8.51237 106.457 7.47014 106.195 6.56938 105.511C5.65806 104.828 5.12097 103.889 4.95811 102.695C4.85146 101.912 4.94586 101.184 5.24131 100.508C5.52619 99.8343 5.96479 99.3008 6.55713 98.9078L7.38078 99.9743C6.98541 100.233 6.68972 100.591 6.49372 101.048C6.29627 101.495 6.23358 101.982 6.30564 102.511C6.41373 103.303 6.77403 103.933 7.38655 104.398C7.99762 104.853 8.70477 105.026 9.508 104.916C10.3007 104.808 10.9305 104.453 11.3974 103.851C11.8629 103.239 12.0416 102.536 11.9336 101.743C11.8615 101.215 11.6751 100.756 11.3744 100.366C11.0631 99.9781 10.6809 99.7019 10.2279 99.5376L10.7496 98.2715C11.4193 98.5247 11.9876 98.9424 12.4546 99.5246C12.9109 100.108 13.1917 100.786 13.2969 101.557ZM4.33356 91.1144L5.6767 91.0664L5.77394 93.7847L12.4257 93.5467L12.4755 94.9378L5.82371 95.1758L5.92152 97.91L4.57838 97.9581L4.33356 91.1144ZM8.62265 84.0358C9.01525 83.2377 9.65865 82.8669 10.5529 82.9236C11.2129 82.9654 11.7416 83.2234 12.1391 83.6975C12.5266 84.1603 12.6944 84.8015 12.6424 85.6212L12.3895 89.6132L4.40547 89.1072L4.63821 85.4346C4.68881 84.6362 4.93019 84.0316 5.36238 83.6207C5.78391 83.2092 6.31936 83.0241 6.96872 83.0652C7.73519 83.1138 8.2865 83.4373 8.62265 84.0358ZM5.87966 85.5774L5.73699 87.8289L7.82879 87.9614L7.97147 85.7099C8.02274 84.9009 7.69176 84.4738 6.97852 84.4286C6.29722 84.3854 5.93093 84.7683 5.87966 85.5774ZM11.3759 85.6211C11.4015 85.2165 11.3253 84.9018 11.1472 84.6767C10.9697 84.441 10.7054 84.312 10.3541 84.2898C10.0241 84.2689 9.76148 84.3645 9.56634 84.5765C9.36124 84.7773 9.24586 85.0799 9.22023 85.4845L9.05832 88.0393L11.214 88.1759L11.3759 85.6211ZM6.31135 73.6546L6.55671 72.2844L14.4314 73.6945L14.1861 75.0648L12.8316 74.8222C13.7489 75.6908 14.0909 76.7761 13.8578 78.0781C13.6604 79.1805 13.0931 80.0488 12.156 80.6829C11.2084 81.3151 10.1571 81.5278 9.00214 81.3209C7.84718 81.1141 6.94028 80.5508 6.28144 79.6309C5.6121 78.7092 5.37614 77.697 5.57357 76.5946C5.80671 75.2926 6.50412 74.3935 7.6658 73.8971L6.31135 73.6546ZM12.5659 77.6679C12.7088 76.8699 12.5604 76.1553 12.1208 75.5239C11.6707 74.8906 11.0467 74.5026 10.2487 74.3597C9.45074 74.2168 8.73607 74.3651 8.1047 74.8047C7.46282 75.2424 7.07044 75.8603 6.92754 76.6582C6.78653 77.4457 6.94107 78.1561 7.39116 78.7893C7.83075 79.4207 8.44953 79.8078 9.24751 79.9507C10.0455 80.0936 10.7654 79.9462 11.4073 79.5085C12.0386 79.0689 12.4248 78.4554 12.5659 77.6679ZM12.0905 66.2366L10.8266 65.7795L12.8125 60.2876L14.0764 60.7446L12.0905 66.2366ZM22.6438 53.3177C22.0576 54.3708 21.2204 55.0524 20.1323 55.3622C19.0349 55.6669 17.9642 55.5287 16.9204 54.9477C15.8766 54.3666 15.1997 53.532 14.8898 52.4439C14.5706 51.3506 14.7042 50.2774 15.2904 49.2242C15.6744 48.5345 16.1871 48.0082 16.8288 47.6451C17.4611 47.2768 18.132 47.1131 18.8417 47.1541L18.8607 48.5015C18.3894 48.4711 17.9381 48.58 17.5069 48.8283C17.0808 49.0672 16.7381 49.4197 16.4787 49.8857C16.0896 50.5847 16.0004 51.3042 16.2111 52.0441C16.427 52.7747 16.8891 53.3371 17.5975 53.7314C18.2964 54.1205 19.0133 54.2144 19.748 54.013C20.4879 53.8023 21.0525 53.3474 21.4416 52.6484C21.701 52.1824 21.8273 51.7034 21.8204 51.2112C21.8043 50.7139 21.6643 50.2636 21.4004 49.8604L22.5775 49.1605C22.9613 49.7649 23.1654 50.44 23.1896 51.186C23.2045 51.9268 23.0226 52.6373 22.6438 53.3177ZM23.2047 37.7574L29.6842 42.4495L28.8865 43.551L24.1824 40.1445L26.0078 44.6074L25.9046 44.7499L21.095 44.408L25.7991 47.8145L24.9921 48.929L18.5126 44.2369L19.3853 43.0317L24.1373 43.3713L22.332 38.9626L23.2047 37.7574ZM34.9221 35.2124C34.9498 36.3661 34.5617 37.3702 33.7578 38.2249C32.9538 39.0795 31.9752 39.5282 30.822 39.571C29.6761 39.606 28.6719 39.2179 27.8095 38.4066C26.9471 37.5954 26.4984 36.6168 26.4634 35.4709C26.4357 34.3172 26.8238 33.313 27.6277 32.4584C28.4317 31.6038 29.4103 31.1551 30.5635 31.1123C31.7167 31.0695 32.7245 31.4537 33.5869 32.265C34.4493 33.0762 34.8944 34.0587 34.9221 35.2124ZM32.7672 37.293C33.3153 36.7103 33.5776 36.0345 33.5541 35.2655C33.5306 34.4965 33.2236 33.8343 32.6332 33.2789C32.0427 32.7234 31.363 32.4575 30.594 32.481C29.825 32.5045 29.1665 32.8075 28.6183 33.3902C28.0775 33.9652 27.8188 34.6371 27.8423 35.4061C27.8658 36.1751 28.1728 36.8373 28.7633 37.3927C29.3538 37.9482 30.0335 38.2142 30.8025 38.1907C31.5714 38.1672 32.2263 37.868 32.7672 37.293ZM36.7297 24.1765L37.6108 25.1914L35.557 26.9746L39.9207 32.0006L38.8696 32.9132L34.5059 27.8872L32.4399 29.681L31.5588 28.6661L36.7297 24.1765ZM41.9389 20.2486C42.8608 19.6127 43.8798 19.4086 44.9959 19.6364C46.106 19.8555 46.9942 20.4479 47.6604 21.4137C48.3267 22.3795 48.5682 23.4246 48.3849 24.5489C48.1955 25.6644 47.6398 26.5401 46.7179 27.1761C45.6292 27.9272 44.4996 28.065 43.3293 27.5895L45.9278 31.3561L44.782 32.1466L38.422 22.9275L39.5678 22.137L40.3492 23.2697C40.3203 22.0067 40.8501 20.9997 41.9389 20.2486ZM45.8098 26.1698C46.4684 25.7155 46.867 25.11 47.0059 24.3533C47.1387 23.5878 46.975 22.8715 46.5146 22.2042C46.0543 21.5369 45.4458 21.1338 44.6891 20.9949C43.9263 20.8473 43.2157 21.0006 42.5572 21.4549C41.8899 21.9152 41.4899 22.5281 41.357 23.2936C41.2182 24.0503 41.3789 24.7623 41.8392 25.4296C42.2996 26.0969 42.9111 26.5043 43.6739 26.652C44.4306 26.7908 45.1426 26.6301 45.8098 26.1698ZM50.6654 20.448C51.1197 21.0168 51.6652 21.3574 52.3018 21.4696C52.9479 21.5768 53.6064 21.4549 54.2774 21.1036C55.213 20.6139 55.7128 19.9128 55.777 19.0003L57.1376 19.0466C57.0067 20.4756 56.2467 21.5537 54.8575 22.2809C53.7329 22.8695 52.6332 22.9997 51.5584 22.6714C50.4881 22.3287 49.6709 21.6187 49.107 20.5413C48.548 19.4735 48.428 18.4046 48.7468 17.3347C49.0657 16.2648 49.7732 15.443 50.8695 14.8691C51.909 14.325 52.9477 14.2508 53.9856 14.6466C55.028 15.028 55.8189 15.7337 56.3581 16.7638C56.452 16.9434 56.5343 17.1351 56.6049 17.3389L50.6654 20.448ZM51.4779 16.0315C50.8164 16.3778 50.3672 16.8537 50.1304 17.4593C49.8886 18.0554 49.879 18.6925 50.1015 19.3706L54.8361 16.8923C54.3809 16.2757 53.8492 15.9039 53.2409 15.7769C52.6326 15.6498 52.0449 15.7347 51.4779 16.0315ZM61.9708 10.1687L62.4663 11.4181L59.9379 12.4208L62.3917 18.608L61.0977 19.1212L58.6439 12.934L56.1007 13.9426L55.6052 12.6933L61.9708 10.1687ZM67.9048 11.3956C68.6733 11.1733 69.3753 11.2201 70.0108 11.5359C70.6535 11.8385 71.0801 12.3536 71.2906 13.0811C71.5011 13.8086 71.4169 14.477 71.0379 15.0863C70.6663 15.6824 70.0962 16.0916 69.3278 16.3139L66.0847 17.2522L63.8614 9.56734L65.1986 9.18048L65.999 11.947L67.9048 11.3956ZM68.9676 15.069C69.3467 14.9593 69.6332 14.7598 69.8271 14.4705C70.0283 14.168 70.0755 13.8324 69.9688 13.4635C69.8621 13.0946 69.6429 12.836 69.3113 12.6877C68.9899 12.5363 68.6397 12.5155 68.2606 12.6252L66.3547 13.1766L67.0617 15.6204L68.9676 15.069ZM82.1431 9.70568C83.0014 9.93911 83.4878 10.5001 83.6025 11.3888C83.6871 12.0447 83.5346 12.6129 83.1448 13.0933C82.7643 13.5619 82.1668 13.8487 81.3522 13.9538L77.3851 14.4656L76.3614 6.53141L80.0112 6.06052C80.8046 5.95815 81.4441 6.07999 81.9297 6.42603C82.4139 6.76149 82.6977 7.25188 82.7809 7.8972C82.8792 8.65888 82.6666 9.26171 82.1431 9.70568ZM80.1074 7.30645L77.8699 7.59512L78.1381 9.67389L80.3756 9.38522C81.1796 9.28149 81.5359 8.87522 81.4444 8.16643C81.3571 7.48938 80.9114 7.20272 80.1074 7.30645ZM81.1111 12.7104C81.5131 12.6586 81.8076 12.5238 81.9946 12.3061C82.1922 12.087 82.2685 11.8029 82.2235 11.4538C82.1811 11.1258 82.0373 10.8863 81.7919 10.7351C81.5558 10.572 81.2367 10.5163 80.8347 10.5682L78.2958 10.8958L78.5722 13.038L81.1111 12.7104ZM91.0357 5.43622L92.1555 5.41421L92.3128 13.4127L90.937 13.4397L90.8266 7.82479L86.5059 13.5268L85.3861 13.5488L85.2289 5.55036L86.6046 5.52332L86.715 11.1382L91.0357 5.43622ZM101.395 12.81L102.494 12.9129L102.17 16.3698L100.8 16.2414L101 14.1068L95.0262 13.5471L94.8262 15.6818L93.4562 15.5534L93.7801 12.0965L94.7519 12.1876C95.3273 11.5344 95.6742 10.5759 95.7926 9.31213L96.1389 5.61632L102.017 6.16705L101.395 12.81ZM96.3289 12.3353L100.025 12.6816L100.526 7.32905L97.388 7.03502L97.1626 9.44049C97.0512 10.6299 96.7733 11.5949 96.3289 12.3353ZM105.198 11.3979C105.181 12.1257 105.38 12.737 105.796 13.2319C106.222 13.729 106.806 14.0583 107.546 14.2199C108.577 14.4453 109.411 14.2288 110.046 13.5705L111.059 14.4797C110.041 15.4911 108.766 15.8295 107.234 15.4949C105.994 15.224 105.068 14.6176 104.454 13.6758C103.854 12.7258 103.684 11.6568 103.943 10.4688C104.2 9.29121 104.795 8.39472 105.726 7.7793C106.657 7.16389 107.728 6.98821 108.936 7.25224C110.083 7.50262 110.927 8.11276 111.468 9.08265C112.022 10.0444 112.175 11.0932 111.927 12.2291C111.884 12.4271 111.824 12.6269 111.747 12.8285L105.198 11.3979ZM108.656 8.53402C107.927 8.37469 107.277 8.45109 106.707 8.76323C106.138 9.06494 105.722 9.54717 105.457 10.2099L110.678 11.3503C110.725 10.5854 110.556 9.95889 110.171 9.47089C109.787 8.98288 109.282 8.67059 108.656 8.53402ZM119.297 17.8273C118.256 18.3256 117.181 18.3834 116.072 18.0006C114.963 17.6178 114.152 16.9093 113.641 15.875C113.139 14.8442 113.081 13.7692 113.467 12.65C113.853 11.5308 114.562 10.7203 115.593 10.2184C116.634 9.72007 117.709 9.66229 118.818 10.0451C119.927 10.4279 120.737 11.1364 121.249 12.1707C121.761 13.2049 121.824 14.2817 121.438 15.4009C121.052 16.5201 120.338 17.3289 119.297 17.8273ZM116.516 16.715C117.272 16.976 117.996 16.9381 118.688 16.6014C119.379 16.2646 119.858 15.7131 120.122 14.9468C120.387 14.1804 120.35 13.4514 120.014 12.7597C119.677 12.068 119.13 11.5917 118.374 11.3307C117.628 11.0732 116.909 11.1128 116.217 11.4495C115.526 11.7863 115.048 12.3378 114.783 13.1042C114.519 13.8705 114.555 14.5995 114.891 15.2912C115.228 15.9829 115.77 16.4575 116.516 16.715ZM135.192 17.895L131.306 24.8882L130.09 24.2121L133.33 18.3798L129.707 16.3673L126.467 22.1996L125.25 21.5236L129.135 14.5304L135.192 17.895ZM141.479 21.9695C142.385 22.627 142.917 23.52 143.074 24.6483C143.237 25.7679 142.974 26.8027 142.285 27.7525C141.596 28.7023 140.691 29.278 139.57 29.4795C138.455 29.6723 137.444 29.4399 136.538 28.7824C135.467 28.0059 134.961 26.9866 135.02 25.7247L132.333 29.4291L131.206 28.6118L137.782 19.5453L138.909 20.3625L138.101 21.4764C139.282 21.0286 140.408 21.193 141.479 21.9695ZM137.184 27.5911C137.832 28.0607 138.536 28.2351 139.295 28.1141C140.061 27.9845 140.682 27.5915 141.158 26.9353C141.634 26.279 141.812 25.571 141.691 24.8113C141.576 24.0429 141.195 23.4238 140.547 22.9542C139.891 22.4782 139.18 22.3051 138.414 22.4347C137.654 22.5557 137.036 22.9443 136.56 23.6006C136.084 24.2568 135.904 24.9691 136.018 25.7375C136.139 26.4973 136.528 27.1151 137.184 27.5911ZM146.786 35.9726C145.632 35.9974 144.629 35.6067 143.776 34.8007C142.924 33.9946 142.478 33.0149 142.438 31.8615C142.406 30.7155 142.796 29.7124 143.61 28.852C144.423 27.9916 145.403 27.5454 146.549 27.5132C147.702 27.4884 148.706 27.8791 149.558 28.6851C150.411 29.4912 150.857 30.4709 150.897 31.6243C150.937 32.7776 150.55 33.7844 149.737 34.6448C148.923 35.5052 147.94 35.9477 146.786 35.9726ZM144.711 33.8124C145.292 34.362 145.967 34.626 146.736 34.6045C147.505 34.5829 148.168 34.2776 148.725 33.6885C149.282 33.0994 149.55 32.4204 149.528 31.6513C149.507 30.8823 149.205 30.223 148.624 29.6734C148.05 29.1311 147.379 28.8708 146.61 28.8923C145.841 28.9139 145.178 29.2192 144.621 29.8083C144.064 30.3974 143.797 31.0764 143.818 31.8455C143.84 32.6145 144.137 33.2701 144.711 33.8124ZM157.949 38.0569L158.67 38.9143L152.545 44.061L151.66 43.0076L155.96 39.3946L148.809 39.6145L148.088 38.7571L154.213 33.6104L155.098 34.6638L150.799 38.2768L157.949 38.0569ZM159.629 47.0299C159.824 47.9665 159.546 48.6886 158.795 49.1964C158.239 49.5727 157.616 49.6714 156.929 49.4923C156.25 49.3073 155.636 48.8083 155.087 47.9953C154.191 46.6698 154.12 45.4232 154.876 44.2557L156.1 44.8381C155.549 45.5842 155.572 46.3991 156.169 47.2828C156.468 47.7247 156.791 48.0022 157.138 48.1153C157.499 48.2313 157.83 48.1878 158.131 47.9847C158.396 47.8055 158.544 47.5575 158.574 47.2408C158.611 46.9329 158.515 46.611 158.288 46.2752L157.634 45.3075L158.682 44.5997L159.165 45.3155C159.392 45.6513 159.648 45.8582 159.933 45.9363C160.226 46.0083 160.514 45.9488 160.797 45.7577C161.08 45.5665 161.235 45.3007 161.262 44.9603C161.296 44.6288 161.184 44.273 160.927 43.893C160.425 43.1507 159.771 42.859 158.964 43.018L158.872 41.7095C160.16 41.5208 161.199 42.0097 161.987 43.1762C162.477 43.9008 162.677 44.5962 162.587 45.2625C162.502 45.9376 162.19 46.4573 161.651 46.8217C160.98 47.2757 160.306 47.3451 159.629 47.0299ZM163.888 54.4491C163.979 55.3338 163.631 55.9897 162.843 56.4167C162.262 56.7318 161.677 56.7941 161.088 56.6036C160.514 56.4173 160.032 55.9632 159.64 55.2411L157.734 51.7244L164.767 47.9122L166.521 51.1475C166.902 51.8508 167.019 52.4913 166.871 53.0689C166.732 53.6415 166.377 54.0828 165.805 54.3929C165.13 54.7588 164.491 54.7776 163.888 54.4491ZM165.393 51.6859L164.318 49.7025L162.475 50.7014L163.551 52.6847C163.937 53.3974 164.444 53.5835 165.072 53.243C165.673 52.9176 165.78 52.3986 165.393 51.6859ZM160.713 54.5684C160.906 54.9248 161.138 55.151 161.409 55.247C161.684 55.3525 161.977 55.3213 162.286 55.1536C162.577 54.996 162.749 54.7755 162.801 54.4922C162.868 54.2131 162.805 53.8954 162.612 53.5391L161.392 51.2884L159.493 52.3178L160.713 54.5684ZM164.936 64.7391C163.876 64.2821 163.126 63.5098 162.685 62.4222C162.245 61.3347 162.246 60.2581 162.69 59.1926C163.137 58.1369 163.909 57.3869 165.006 56.9425C166.104 56.4981 167.18 56.4995 168.236 56.9466C169.296 57.4036 170.046 58.1759 170.486 59.2635C170.927 60.351 170.925 61.4276 170.482 62.4931C170.039 63.5587 169.269 64.3137 168.171 64.758C167.074 65.2024 165.995 65.1961 164.936 64.7391ZM163.946 61.9118C164.246 62.6533 164.751 63.1741 165.459 63.4741C166.167 63.7742 166.897 63.7721 167.649 63.4678C168.4 63.1635 168.926 62.6572 169.226 61.9488C169.526 61.2404 169.526 60.5154 169.226 59.7739C168.929 59.0423 168.427 58.5264 167.719 58.2264C167.01 57.9263 166.28 57.9285 165.529 58.2327C164.777 58.537 164.252 59.0433 163.952 59.7517C163.652 60.4601 163.65 61.1802 163.946 61.9118ZM167.932 73.8132L168.222 74.8783L164.872 75.7915L164.511 74.4639L166.579 73.9L165.001 68.1112L162.933 68.6751L162.571 67.3476L165.92 66.4344L166.177 67.3761C166.991 67.6849 168.01 67.6724 169.235 67.3386L172.816 66.3623L174.369 72.0585L167.932 73.8132ZM166.594 68.9043L167.57 72.4856L172.757 71.0717L171.928 68.0307L169.597 68.6661C168.444 68.9803 167.443 69.0597 166.594 68.9043ZM167.497 80.1408C167.315 78.9494 167.559 77.8977 168.228 76.9858C168.908 76.0724 169.839 75.5252 171.02 75.3444C172.201 75.1635 173.247 75.408 174.159 76.0777C175.082 76.7458 175.634 77.6755 175.816 78.867C175.936 79.6472 175.853 80.3774 175.569 81.0576C175.295 81.7362 174.866 82.2768 174.28 82.6795L173.439 81.6266C173.83 81.3617 174.12 80.999 174.308 80.5385C174.498 80.0886 174.553 79.6 174.472 79.0728C174.351 78.282 173.98 77.6589 173.36 77.2036C172.742 76.7587 172.032 76.5976 171.231 76.7203C170.44 76.8414 169.816 77.2067 169.359 77.8163C168.904 78.4363 168.736 79.1418 168.858 79.9325C168.938 80.4597 169.132 80.9156 169.439 81.3003C169.757 81.6833 170.144 81.9532 170.599 82.11L170.098 83.3845C169.425 83.1424 168.849 82.734 168.373 82.1595C167.907 81.5834 167.615 80.9105 167.497 80.1408ZM176.628 90.4384L175.286 90.508L175.145 87.7916L168.498 88.1362L168.426 86.7461L175.073 86.4015L174.932 83.6692L176.274 83.5996L176.628 90.4384ZM172.471 97.5743C172.093 98.3796 171.456 98.7622 170.561 98.7223C169.901 98.6927 169.367 98.4447 168.961 97.9781C168.565 97.5226 168.385 96.8847 168.422 96.0641L168.6 92.0681L176.592 92.4251L176.428 96.1015C176.392 96.9007 176.162 97.5097 175.738 97.9285C175.324 98.3478 174.792 98.5429 174.142 98.5139C173.375 98.4796 172.818 98.1664 172.471 97.5743ZM175.184 95.9818L175.285 93.7281L173.191 93.6345L173.09 95.8883C173.054 96.6982 173.393 97.119 174.107 97.1509C174.789 97.1814 175.148 96.7917 175.184 95.9818ZM169.688 96.0406C169.67 96.4456 169.752 96.7589 169.934 96.9806C170.116 97.2129 170.383 97.3369 170.735 97.3526C171.065 97.3674 171.326 97.2669 171.517 97.0512C171.718 96.8467 171.828 96.5419 171.846 96.137L171.96 93.5796L169.802 93.4832L169.688 96.0406ZM174.94 107.937L174.715 109.311L166.82 108.017L167.045 106.643L168.403 106.866C167.473 106.011 167.115 104.93 167.329 103.625C167.511 102.52 168.065 101.643 168.993 100.996C169.931 100.35 170.979 100.122 172.137 100.311C173.295 100.501 174.21 101.051 174.882 101.961C175.565 102.873 175.816 103.882 175.634 104.987C175.42 106.292 174.736 107.201 173.582 107.715L174.94 107.937ZM168.627 104.016C168.496 104.816 168.655 105.529 169.104 106.154C169.563 106.78 170.193 107.159 170.993 107.29C171.793 107.421 172.505 107.262 173.13 106.814C173.765 106.367 174.149 105.743 174.28 104.943C174.409 104.154 174.244 103.446 173.785 102.819C173.336 102.194 172.712 101.816 171.912 101.685C171.112 101.554 170.394 101.712 169.759 102.159C169.134 102.608 168.757 103.227 168.627 104.016ZM169.286 115.434L170.558 115.87L168.664 121.395L167.393 120.959L169.286 115.434Z" fill="#EFEFEC"/>
<path d="M104 90.1748C105.333 90.9446 105.333 92.8691 104 93.6389L86.1398 103.95C84.8064 104.72 83.1398 103.758 83.1398 102.218L83.1398 81.5952C83.1398 80.0556 84.8064 79.0934 86.1398 79.8632L104 90.1748Z" fill="#698468"/>
</g>
<defs>
<clipPath id="clip0_12_302">
<rect width="180" height="180" fill="white"/>
</clipPath>
</defs>
</svg>
