<svg width="40" height="40" viewBox="0 0 40 40" fill="none" xmlns="http://www.w3.org/2000/svg">
<g clip-path="url(#clip0_12_334)">
<path fill-rule="evenodd" clip-rule="evenodd" d="M25.925 1.80955C25.1254 1.04789 24.0635 0.623047 22.9592 0.623047C21.8549 0.623047 20.7929 1.04789 19.9933 1.80955C18.5725 3.15122 17.13 4.82039 15.7517 6.59872C14.0283 5.40705 11.6517 5.64872 10.1917 7.32205C7.3925 10.5337 4.51833 15.3779 3.00583 18.4846C1.49583 19.1487 0.395833 20.6821 0.665833 22.5804C2.01583 32.0721 10.1525 39.3754 19.9992 39.3754C29.8475 39.3754 37.985 32.0721 39.3342 22.5804C39.6983 20.0221 37.5725 18.1271 35.3117 18.1271H34.2092V15.6412C36.2025 15.5721 37.1592 15.3854 37.585 15.2662C38.2192 15.0887 38.4475 14.4246 38.2475 13.9179C37.83 12.8784 37.3691 11.857 36.8658 10.8562C37.1725 10.8104 37.3917 10.7654 37.5467 10.7271C38.205 10.5629 38.4558 9.86872 38.225 9.33705C37.4267 7.50122 35.7858 4.45039 34.2 2.48205C34.0027 2.23109 33.751 2.02821 33.4639 1.8887C33.1768 1.74919 32.8617 1.6767 32.5425 1.6767C32.2233 1.6767 31.9082 1.74919 31.6211 1.8887C31.334 2.02821 31.0823 2.23109 30.885 2.48205C29.2983 4.45039 27.6583 7.50122 26.86 9.33705C26.6283 9.86789 26.8792 10.5621 27.5383 10.7271C27.6925 10.7654 27.9125 10.8104 28.2183 10.8562C27.7151 11.857 27.2541 12.8784 26.8367 13.9179C26.6367 14.4254 26.865 15.0887 27.5 15.2662C27.925 15.3854 28.8825 15.5721 30.875 15.6412V18.1262H23.57C22.2967 15.5762 20.2117 12.0237 18.0167 9.12372C19.4442 7.24289 20.9017 5.53455 22.2808 4.23289C22.4617 4.05476 22.7053 3.95492 22.9592 3.95492C23.213 3.95492 23.4567 4.05476 23.6375 4.23289C23.8464 4.43011 24.0581 4.63761 24.2725 4.85539C24.583 5.17011 25.0059 5.34859 25.448 5.35156C25.8901 5.35453 26.3153 5.18175 26.63 4.87122C26.9447 4.5607 27.1232 4.13787 27.1262 3.69575C27.1291 3.25363 26.9564 2.82844 26.6458 2.51372C26.4098 2.27446 26.1694 2.04026 25.925 1.80955ZM19.81 18.1254C18.3017 15.3504 16.1183 11.8887 14.0467 9.51205C13.6708 9.08039 13.0808 9.08039 12.705 9.51205C10.6325 11.8887 8.44917 15.3496 6.94083 18.1262L19.81 18.1254ZM14.31 21.4587H19.6442C19.8942 22.8354 20.525 23.8221 21.405 24.5329C22.5133 25.4279 23.9425 25.8079 25.0808 26.1096L25.1525 26.1287C25.8469 26.3137 26.3919 26.5176 26.7875 26.7404C27.1875 26.9637 27.3817 27.1737 27.4683 27.3412C27.595 27.5896 27.6575 28.1537 26.6342 29.3696L26.595 29.4162C25.9683 30.1604 25.1608 31.1196 24.79 32.3246C24.5133 33.2246 24.49 34.2096 24.8408 35.3029C23.2738 35.7934 21.6412 36.0424 19.9992 36.0412C14.8658 36.0412 10.2858 33.6437 7.3175 29.9012C7.98083 29.0829 8.91083 28.6537 10.0058 28.1637C11.7075 27.4037 13.1575 26.2271 13.8958 24.6904C14.3821 23.6873 14.5276 22.5529 14.31 21.4596" fill="#698468"/>
</g>
<defs>
<clipPath id="clip0_12_334">
<rect width="40" height="40" fill="white"/>
</clipPath>
</defs>
</svg>
