<svg width="40" height="40" viewBox="0 0 40 40" fill="none" xmlns="http://www.w3.org/2000/svg">
<path d="M36.7183 18.1248L33.1583 12.2198C32.8978 11.791 32.5316 11.4362 32.0948 11.1893C31.6579 10.9425 31.1651 10.8118 30.6633 10.8098H27.8683V10.3948C27.8684 9.79546 27.75 9.20204 27.5201 8.64859C27.2901 8.09515 26.9531 7.59259 26.5283 7.16977C25.6697 6.3142 24.5071 5.83358 23.295 5.83311H6.65667C5.75111 5.82711 4.86435 6.09148 4.1099 6.59237C3.35545 7.09325 2.76763 7.80788 2.42167 8.64477C2.19277 9.1996 2.07717 9.7946 2.08167 10.3948V25.3248C2.08261 26.026 2.33757 26.7031 2.79935 27.2307C3.26113 27.7584 3.89846 28.1009 4.59334 28.1948C4.58556 28.3448 4.58556 28.4942 4.59334 28.6431C4.58741 29.35 4.7243 30.0508 4.9958 30.7035C5.2673 31.3562 5.66782 31.9473 6.17334 32.4414C6.66939 32.9577 7.26316 33.3702 7.92011 33.6549C8.57706 33.9396 9.28407 34.0908 10 34.0998C11.4289 34.0868 12.7959 33.5149 13.8083 32.5064C14.8198 31.4996 15.3946 30.1352 15.4083 28.7081C15.4169 28.5705 15.4169 28.4324 15.4083 28.2948H24.59C24.5815 28.4324 24.5815 28.5705 24.59 28.7081C24.5839 29.4153 24.7206 30.1164 24.9921 30.7694C25.2636 31.4224 25.6643 32.0138 26.17 32.5081C26.6664 33.0248 27.2608 33.4375 27.9183 33.7222C28.5759 34.007 29.2835 34.158 30 34.1664C31.4289 34.1535 32.7959 33.5815 33.8083 32.5731C34.8192 31.566 35.3933 30.2016 35.4067 28.7748C35.4153 28.6366 35.4153 28.498 35.4067 28.3598H36.6667C36.9954 28.3551 37.3095 28.2227 37.5424 27.9907C37.7754 27.7587 37.909 27.4452 37.915 27.1164V22.3231C37.915 20.8398 37.5 19.3864 36.7183 18.1248ZM12.895 28.6414C12.8955 29.0224 12.8191 29.3996 12.6705 29.7504C12.5219 30.1012 12.304 30.4184 12.03 30.6831C11.4755 31.21 10.7399 31.5037 9.975 31.5037C9.21013 31.5037 8.47448 31.21 7.92 30.6831C7.64974 30.4134 7.43572 30.0928 7.29038 29.7397C7.14504 29.3866 7.07126 29.0082 7.07334 28.6264C7.06551 28.2322 7.1452 27.8412 7.30667 27.4814C7.52667 26.9598 7.905 26.5198 8.38667 26.2198C8.87931 25.8942 9.45962 25.7267 10.05 25.7398C10.6133 25.7398 11.1633 25.9064 11.63 26.2198C12.1083 26.5248 12.485 26.9631 12.7133 27.4814C12.8767 27.8398 12.9633 28.2314 12.9617 28.6264L12.895 28.6414ZM18.3017 20.3481H9.985C9.54471 20.3477 9.12247 20.173 8.8105 19.8623C8.49854 19.5516 8.3222 19.1301 8.32 18.6898C8.31956 18.4714 8.36231 18.255 8.44578 18.0532C8.52926 17.8514 8.65182 17.6681 8.8064 17.5138C8.96099 17.3595 9.14455 17.2373 9.34654 17.1543C9.54852 17.0712 9.76494 17.0289 9.98334 17.0298H18.3017C18.742 17.0307 19.164 17.2057 19.4757 17.5167C19.7873 17.8278 19.9632 18.2495 19.965 18.6898C19.9652 18.908 19.9223 19.1242 19.8387 19.3258C19.7552 19.5274 19.6326 19.7106 19.478 19.8647C19.3234 20.0188 19.14 20.1408 18.9381 20.2238C18.7362 20.3067 18.5199 20.349 18.3017 20.3481ZM18.3017 14.6414H9.985C9.54471 14.641 9.12247 14.4664 8.8105 14.1556C8.49854 13.8449 8.3222 13.4234 8.32 12.9831C8.31978 12.7648 8.36269 12.5487 8.44626 12.3471C8.52984 12.1454 8.65243 11.9623 8.80699 11.8082C8.96156 11.6541 9.14505 11.5321 9.34693 11.4491C9.5488 11.3662 9.76508 11.3239 9.98334 11.3248H18.3017C18.7417 11.3256 19.1635 11.5005 19.4751 11.8112C19.7867 12.1218 19.9628 12.5431 19.965 12.9831C19.9652 13.2014 19.9223 13.4175 19.8387 13.6191C19.7552 13.8208 19.6326 14.0039 19.478 14.158C19.3234 14.3121 19.14 14.4341 18.9381 14.5171C18.7362 14.6001 18.5199 14.6423 18.3017 14.6414ZM32.8583 28.6414C32.8586 29.0225 32.782 29.3998 32.6331 29.7506C32.4842 30.1014 32.266 30.4186 31.9917 30.6831C31.4373 31.2095 30.702 31.503 29.9375 31.503C29.173 31.503 28.4377 31.2095 27.8833 30.6831C27.6128 30.4136 27.3985 30.0929 27.2528 29.7399C27.1072 29.3868 27.0332 29.0084 27.035 28.6264C27.0279 28.0221 27.2213 27.4325 27.585 26.9498C27.995 26.4048 28.5833 26.0164 29.2483 25.8548H29.665C29.7412 25.8366 29.8205 25.8366 29.8967 25.8548H30.23C30.735 25.9131 31.2167 26.1014 31.6267 26.4031C32.0383 26.7048 32.36 27.1114 32.5583 27.5814C32.7233 27.9398 32.8083 28.3314 32.8083 28.7248L32.8583 28.6414Z" fill="#698468"/>
<path d="M29.9333 25.7238C29.8567 25.7054 29.7767 25.7054 29.7 25.7238H29.9333Z" fill="#698468"/>
</svg>
