<svg width="40" height="40" viewBox="0 0 40 40" fill="none" xmlns="http://www.w3.org/2000/svg">
<path d="M35.8333 3.33301H12.5V16.403C13.0162 16.3026 13.5408 16.2512 14.0667 16.2497H21.875C23.3566 16.2497 24.803 16.7011 26.0217 17.5437C27.2404 18.3863 28.1734 19.5802 28.6967 20.9663L31.97 20.213C33.2446 19.8851 34.5872 19.9361 35.8333 20.3597V3.33301ZM20.8333 6.66634H27.5V13.333L24.1667 10.833L20.8333 13.333V6.66634Z" fill="#698468"/>
<path d="M32.5667 22.6417L26.645 24.0033C26.7135 23.2993 26.6249 22.5887 26.3857 21.923C26.1465 21.2573 25.7626 20.6529 25.2617 20.1533C24.3629 19.2559 23.1451 18.7513 21.875 18.75H14.065C13.3533 18.7485 12.6483 18.8873 11.9903 19.1584C11.3322 19.4295 10.7341 19.8276 10.23 20.33L6.81 23.75H0V35.8333H18.955L29.2833 33.25L35.5167 30.5933L35.56 30.57C36.5069 30.1009 37.2455 29.2966 37.6324 28.3133C38.0193 27.3299 38.0267 26.2379 37.6533 25.2494C37.2799 24.2609 36.5523 23.4465 35.6119 22.9646C34.6715 22.4826 33.5855 22.3675 32.565 22.6417M13.2583 22.2417C13.5121 22.1389 13.7829 22.0852 14.0567 22.0833H21.8733C22.0648 22.0833 22.2545 22.1211 22.4314 22.1944C22.6083 22.2676 22.7691 22.3751 22.9045 22.5105C23.0399 22.6459 23.1474 22.8067 23.2207 22.9836C23.2939 23.1605 23.3317 23.3502 23.3317 23.5417C23.3317 23.7332 23.2939 23.9228 23.2207 24.0998C23.1474 24.2767 23.0399 24.4375 22.9045 24.5729C22.7691 24.7083 22.6083 24.8157 22.4314 24.889C22.2545 24.9623 22.0648 25 21.8733 25H16.6667V28.3333H22.69L33.3767 25.875L33.41 25.8667C33.6281 25.8081 33.8602 25.8312 34.0625 25.9317C34.2648 26.0322 34.4234 26.2031 34.5086 26.4123C34.5937 26.6215 34.5995 26.8546 34.5249 27.0678C34.4503 27.281 34.3004 27.4596 34.1033 27.57L28.2167 30.0833L18.545 32.5H9.16667V26.1067L12.5833 22.69C12.7785 22.4987 13.0081 22.346 13.26 22.24M3.33333 27.0833H5.83333V32.5H3.33333V27.0833Z" fill="#698468"/>
</svg>
