<svg width="40" height="40" viewBox="0 0 40 40" fill="none" xmlns="http://www.w3.org/2000/svg">
<g clip-path="url(#clip0_12_344)">
<path d="M20 0C16.0444 0 12.1776 1.17298 8.8886 3.37061C5.59962 5.56824 3.03617 8.69181 1.52242 12.3463C0.00866572 16.0009 -0.387401 20.0222 0.384303 23.9018C1.15601 27.7814 3.06082 31.3451 5.85787 34.1421C8.65492 36.9392 12.2186 38.844 16.0982 39.6157C19.9778 40.3874 23.9992 39.9913 27.6537 38.4776C31.3082 36.9638 34.4318 34.4004 36.6294 31.1114C38.827 27.8224 40 23.9556 40 20C40 14.6957 37.8929 9.60859 34.1421 5.85786C30.3914 2.10714 25.3043 0 20 0ZM28.6667 28.7C28.5184 28.8629 28.3394 28.9949 28.1399 29.0882C27.9403 29.1815 27.7243 29.2343 27.5042 29.2436C27.2841 29.2529 27.0644 29.2185 26.8577 29.1424C26.651 29.0662 26.4615 28.9499 26.3 28.8L17.9667 21.2333C17.8091 21.0703 17.6864 20.8768 17.6062 20.6648C17.5259 20.4527 17.4898 20.2265 17.5 20V10.8333C17.5 10.3913 17.6756 9.96738 17.9882 9.65482C18.3007 9.34226 18.7246 9.16667 19.1667 9.16667C19.6087 9.16667 20.0326 9.34226 20.3452 9.65482C20.6577 9.96738 20.8333 10.3913 20.8333 10.8333V19.2667L28.55 26.35C28.8764 26.6466 29.072 27.0604 29.0938 27.5009C29.1157 27.9414 28.9621 28.3726 28.6667 28.7Z" fill="#698468"/>
</g>
<defs>
<clipPath id="clip0_12_344">
<rect width="40" height="40" fill="white"/>
</clipPath>
</defs>
</svg>
