<svg width="131" height="25" viewBox="0 0 131 25" fill="none" xmlns="http://www.w3.org/2000/svg">
<path d="M14.5171 7.48801H0V24.5003H4.0406V18.9656H11.7831L15.3155 24.5003H19.8401L15.9447 18.9401C17.1544 18.736 18.0254 18.2513 18.5576 17.4862C19.0899 16.721 19.3562 15.4968 19.3562 13.8644V12.5891C19.3744 11.806 19.2848 11.0241 19.09 10.2681C18.9199 9.68444 18.6215 9.15134 18.219 8.71228C17.7922 8.28337 17.2796 7.96088 16.7188 7.76857C16.001 7.56672 15.2599 7.47228 14.5171 7.48801ZM13.8638 15.2162H4.0406V11.2373H13.8638C14.4203 11.2373 14.8074 11.3393 15.001 11.5179C15.1946 11.6964 15.3155 12.028 15.3155 12.5126V13.9409C15.3155 14.451 15.1946 14.7826 15.001 14.9611C14.8075 15.1397 14.4203 15.2162 13.8638 15.2162Z" fill="#1C293E"/>
<path d="M25.3005 19.4749V7.4873H21.2599V19.3729C21.2599 20.3421 21.3325 21.1328 21.5019 21.7194C21.6772 22.3064 21.9843 22.8402 22.3971 23.2753C22.8099 23.7105 23.3162 24.0342 23.873 24.2189C24.4537 24.4231 25.1795 24.4996 26.099 24.4996H35.7771C36.6722 24.4996 37.3982 24.4231 37.9789 24.2189C38.548 24.0468 39.0649 23.7216 39.4789 23.2753C39.8912 22.8442 40.1912 22.3083 40.35 21.7194C40.5445 20.9546 40.6341 20.1644 40.6161 19.3729V7.4873H36.5755V19.4749C36.5755 19.985 36.4545 20.3167 36.261 20.4951C36.0674 20.6736 35.6803 20.7503 35.1239 20.7503H26.7523C26.1716 20.7503 25.7844 20.6736 25.5909 20.4951C25.3974 20.3167 25.3005 19.985 25.3005 19.4749Z" fill="#1C293E"/>
<path d="M54.2845 24.4996V11.2366H62.0995V7.4873H42.4288V11.2366H50.2439V24.4996H54.2845Z" fill="#1C293E"/>
<path d="M67.9516 19.4749V7.4873H63.911V19.3729C63.911 20.3421 63.9836 21.1328 64.1529 21.7194C64.3282 22.3064 64.6353 22.8401 65.0481 23.2752C65.4609 23.7104 65.9672 24.0341 66.524 24.2189C67.1047 24.4231 67.8307 24.4996 68.75 24.4996H78.4281C79.3234 24.4996 80.0492 24.4231 80.6299 24.2189C81.1991 24.0468 81.716 23.7216 82.13 23.2753C82.5423 22.8442 82.8422 22.3083 83.001 21.7194C83.1955 20.9546 83.2851 20.1644 83.2672 19.3729V7.4873H79.2266V19.4749C79.2266 19.985 79.1055 20.3167 78.912 20.4951C78.7185 20.6736 78.3313 20.7503 77.7748 20.7503H69.4032C68.8225 20.7503 68.4355 20.6736 68.2419 20.4951C68.0484 20.3167 67.9516 19.985 67.9516 19.4749Z" fill="#1C293E"/>
<path d="M103.744 12.4354V12.1038C103.744 10.5225 103.357 9.3492 102.583 8.60954C101.809 7.86988 100.575 7.4873 98.9294 7.4873H85.2107V24.4996H99.7277C101.373 24.4996 102.607 24.1424 103.381 23.4028C104.156 22.6632 104.543 21.4899 104.543 19.9085V19.5515C104.543 17.9701 104.155 16.8478 103.381 16.1847C103.241 16.09 103.096 16.0048 102.946 15.9296C102.741 15.8239 102.531 15.7303 102.317 15.6491C102.794 15.389 103.183 14.979 103.43 14.4758C103.623 14.0167 103.744 13.3281 103.744 12.4354ZM89.2513 14.2973V11.2366H98.276C98.8566 11.2366 99.2438 11.3386 99.4373 11.5172C99.631 11.6957 99.7278 12.0273 99.7277 12.5119V13.022C99.7277 13.5321 99.631 13.8637 99.4373 14.0422C99.2438 14.2208 98.8566 14.2973 98.276 14.2973H89.2513ZM89.2513 20.7503V17.6895H99.0987C99.6552 17.6895 100.042 17.7916 100.236 17.9701C100.429 18.1486 100.55 18.4803 100.55 18.9649V19.4749C100.55 19.985 100.429 20.3167 100.236 20.4951C100.042 20.6736 99.6552 20.7503 99.0987 20.7503H89.2513Z" fill="#1C293E"/>
<path d="M110.023 11.2366H123.234V7.4873H105.983V24.4996H123.887V20.7503H110.023V17.8681H122.919L123.234 14.1187H110.023V11.2366Z" fill="#1C293E"/>
<path d="M128.173 6.46083C129.734 6.46083 131 5.12645 131 3.48041C131 1.83438 129.734 0.5 128.173 0.5C126.611 0.5 125.345 1.83438 125.345 3.48041C125.345 5.12645 126.611 6.46083 128.173 6.46083Z" fill="#F41240"/>
</svg>
