<svg width="31" height="32" viewBox="0 0 31 32" fill="none" xmlns="http://www.w3.org/2000/svg">
<g clip-path="url(#clip0_14_947)">
<path d="M14.7483 0.517928C6.56122 0.907749 0.100479 7.72599 0.125316 15.9223C0.132878 18.4187 0.735551 20.775 1.7987 22.857L0.166388 30.7804C0.0780891 31.209 0.464648 31.5843 0.890427 31.4834L8.65446 29.644C10.6492 30.6376 12.8896 31.2115 15.2608 31.2477C23.6288 31.3755 30.6062 24.7311 30.867 16.3663C31.1466 7.3997 23.7462 0.0894059 14.7483 0.517928ZM24.0124 24.3873C21.7387 26.661 18.7155 27.9132 15.5 27.9132C13.6172 27.9132 11.8145 27.4908 10.142 26.6577L9.06081 26.1191L4.30066 27.2469L5.30264 22.3828L4.76996 21.3397C3.90172 19.6393 3.46148 17.8006 3.46148 15.8747C3.46148 12.6591 4.71369 9.63602 6.98745 7.36219C9.24089 5.10874 12.3134 3.83615 15.5002 3.83615C18.7157 3.83623 21.7388 5.08843 24.0125 7.36212C26.2863 9.63588 27.5385 12.659 27.5386 15.8745C27.5385 19.0614 26.2659 22.1339 24.0124 24.3873Z" fill="#7AD06D"/>
<path d="M22.9616 19.2091L19.9835 18.354C19.592 18.2416 19.1704 18.3526 18.8851 18.6433L18.1568 19.3853C17.8498 19.6982 17.3838 19.7987 16.9774 19.6343C15.5686 19.0641 12.6051 16.4293 11.8483 15.1113C11.63 14.7311 11.6661 14.2558 11.9341 13.9089L12.57 13.0863C12.8191 12.7641 12.8716 12.3312 12.7069 11.9587L11.454 9.12488C11.1538 8.44614 10.2865 8.24856 9.71985 8.72779C8.88868 9.43078 7.90248 10.499 7.7826 11.6825C7.57123 13.7691 8.46608 16.3994 11.85 19.5577C15.7593 23.2064 18.8899 23.6885 20.9282 23.1947C22.0843 22.9147 23.0083 21.7921 23.5914 20.8729C23.9889 20.2462 23.675 19.4139 22.9616 19.2091Z" fill="#7AD06D"/>
</g>
<defs>
<clipPath id="clip0_14_947">
<rect width="31" height="31" fill="white" transform="translate(0 0.5)"/>
</clipPath>
</defs>
</svg>
