<svg width="26" height="27" viewBox="0 0 26 27" fill="none" xmlns="http://www.w3.org/2000/svg">
<path d="M16.9903 0.5H9.00908C1.72583 0.5 -0.000732422 2.22656 -0.000732422 9.50981V17.491C-0.000732422 24.7743 1.72583 26.5008 9.00908 26.5008H16.9903C24.2735 26.5008 26.0001 24.7743 26.0001 17.491V9.50981C26.0001 2.22656 24.2565 0.5 16.9903 0.5ZM20.9894 19.0477H19.102C18.387 19.0477 18.1668 18.4806 16.8806 17.1774C15.7634 16.0943 15.2686 15.9505 14.9931 15.9505C14.604 15.9505 14.4935 16.0602 14.4935 16.594V18.2994C14.4935 18.7569 14.3496 19.0315 13.139 19.0315C11.137 19.0315 8.91564 17.8209 7.35808 15.5654C5.00914 12.2601 4.36646 9.78444 4.36646 9.27256C4.36646 8.99712 4.47614 8.73956 5.00508 8.73956H6.89658C7.37514 8.73956 7.55714 8.95975 7.74321 9.47162C8.67839 12.1716 10.236 14.5367 10.8786 14.5367C11.1159 14.5367 11.2256 14.4271 11.2256 13.8217V11.0332C11.1533 9.74706 10.4765 9.63656 10.4765 9.17994C10.4765 8.95975 10.6585 8.73956 10.9501 8.73956H13.9247C14.3269 8.73956 14.4748 8.95975 14.4748 9.43344V13.1953C14.4748 13.6016 14.6568 13.7454 14.7665 13.7454C15.0037 13.7454 15.2068 13.6016 15.6464 13.1612C17.0049 11.6378 17.9783 9.28881 17.9783 9.28881C18.105 9.01338 18.3252 8.75581 18.8038 8.75581H20.6953C21.2624 8.75581 21.3891 9.0475 21.2624 9.45375C21.0251 10.5539 18.7103 13.8209 18.7103 13.8209C18.5113 14.1508 18.4349 14.2946 18.7103 14.6627C18.9135 14.9381 19.574 15.5093 20.0136 16.0212C20.822 16.9393 21.4436 17.7096 21.6093 18.2426C21.7954 18.7715 21.5208 19.0469 20.987 19.0469L20.9894 19.0477Z" fill="#1F75D9"/>
</svg>
