<svg width="263" height="263" viewBox="0 0 263 263" fill="none" xmlns="http://www.w3.org/2000/svg">
<circle cx="131.031" cy="130.125" r="64.0817" fill="#545B54"/>
<path d="M198.693 170.779C199.298 169.736 200.148 169.07 201.241 168.779C202.344 168.494 203.412 168.652 204.445 169.251C205.478 169.851 206.14 170.698 206.43 171.791C206.73 172.89 206.577 173.961 205.972 175.003C205.576 175.686 205.054 176.203 204.406 176.555C203.767 176.911 203.093 177.063 202.384 177.009L202.389 175.662C202.86 175.701 203.313 175.6 203.749 175.359C204.179 175.128 204.528 174.782 204.796 174.321C205.197 173.629 205.3 172.911 205.102 172.167C204.899 171.433 204.447 170.862 203.746 170.455C203.054 170.054 202.339 169.947 201.601 170.135C200.857 170.333 200.285 170.777 199.883 171.469C199.616 171.931 199.481 172.407 199.479 172.899C199.486 173.397 199.618 173.85 199.874 174.258L198.685 174.936C198.312 174.325 198.12 173.646 198.109 172.9C198.108 172.159 198.302 171.452 198.693 170.779ZM197.855 186.327L191.46 181.52L192.277 180.433L196.92 183.923L195.174 179.428L195.28 179.287L200.083 179.715L195.44 176.225L196.266 175.125L202.662 179.932L201.768 181.121L197.022 180.697L198.749 185.137L197.855 186.327ZM186.113 188.677C186.103 187.523 186.506 186.525 187.322 185.682C188.139 184.839 189.124 184.405 190.278 184.379C191.424 184.361 192.422 184.764 193.272 185.588C194.123 186.412 194.557 187.397 194.575 188.544C194.585 189.698 194.182 190.696 193.366 191.539C192.549 192.381 191.564 192.815 190.411 192.841C189.257 192.867 188.255 192.468 187.405 191.644C186.554 190.82 186.124 189.831 186.113 188.677ZM188.299 186.628C187.742 187.203 187.47 187.875 187.482 188.644C187.494 189.413 187.791 190.08 188.373 190.644C188.955 191.208 189.631 191.484 190.4 191.472C191.17 191.46 191.833 191.167 192.389 190.592C192.939 190.025 193.207 189.357 193.195 188.588C193.183 187.819 192.886 187.152 192.304 186.588C191.722 186.024 191.046 185.748 190.277 185.76C189.507 185.772 188.848 186.061 188.299 186.628ZM184.103 199.684L183.241 198.653L185.327 196.908L181.057 191.802L182.125 190.909L186.395 196.015L188.494 194.26L189.356 195.291L184.103 199.684ZM178.859 203.515C177.928 204.137 176.906 204.326 175.794 204.082C174.687 203.846 173.808 203.241 173.156 202.265C172.504 201.29 172.278 200.241 172.478 199.12C172.683 198.007 173.252 197.14 174.183 196.518C175.283 195.783 176.414 195.661 177.577 196.154L175.035 192.35L176.192 191.576L182.415 200.888L181.258 201.661L180.493 200.517C180.504 201.781 179.959 202.78 178.859 203.515ZM175.076 197.537C174.411 197.982 174.003 198.581 173.853 199.336C173.709 200.099 173.863 200.818 174.313 201.492C174.763 202.166 175.366 202.578 176.121 202.728C176.881 202.887 177.594 202.744 178.259 202.299C178.933 201.849 179.342 201.242 179.486 200.479C179.636 199.724 179.486 199.01 179.035 198.336C178.585 197.662 177.979 197.245 177.219 197.087C176.464 196.937 175.75 197.087 175.076 197.537ZM170.119 203.185C169.676 202.608 169.137 202.257 168.503 202.132C167.859 202.012 167.198 202.121 166.521 202.46C165.576 202.931 165.062 203.622 164.98 204.533L163.621 204.461C163.78 203.035 164.56 201.972 165.963 201.271C167.099 200.705 168.201 200.596 169.269 200.945C170.333 201.308 171.136 202.034 171.679 203.122C172.217 204.2 172.317 205.271 171.977 206.335C171.638 207.398 170.914 208.206 169.807 208.759C168.757 209.283 167.717 209.337 166.687 208.921C165.652 208.52 164.875 207.799 164.356 206.758C164.266 206.577 164.187 206.384 164.121 206.179L170.119 203.185ZM169.221 207.585C169.889 207.252 170.348 206.784 170.596 206.184C170.849 205.592 170.871 204.955 170.662 204.273L165.88 206.659C166.324 207.285 166.848 207.667 167.454 207.805C168.059 207.944 168.649 207.871 169.221 207.585ZM158.641 213.253L158.167 211.995L160.712 211.035L158.363 204.807L159.666 204.316L162.014 210.544L164.574 209.579L165.049 210.836L158.641 213.253ZM152.731 211.925C151.959 212.134 151.257 212.076 150.627 211.749C149.99 211.436 149.572 210.914 149.374 210.183C149.176 209.452 149.271 208.785 149.66 208.182C150.042 207.592 150.619 207.193 151.391 206.984L154.649 206.1L156.743 213.821L155.399 214.186L154.646 211.406L152.731 211.925ZM151.73 208.234C151.349 208.338 151.059 208.532 150.86 208.818C150.654 209.117 150.601 209.452 150.702 209.823C150.802 210.193 151.017 210.456 151.346 210.61C151.665 210.766 152.015 210.793 152.396 210.69L154.311 210.171L153.645 207.715L151.73 208.234ZM138.476 213.385C137.621 213.139 137.144 212.57 137.043 211.68C136.968 211.023 137.129 210.457 137.526 209.983C137.914 209.52 138.516 209.242 139.332 209.15L143.307 208.699L144.208 216.648L140.552 217.063C139.757 217.153 139.119 217.021 138.639 216.668C138.16 216.325 137.884 215.83 137.81 215.184C137.724 214.421 137.946 213.821 138.476 213.385ZM140.474 215.816L142.716 215.561L142.48 213.479L140.238 213.733C139.433 213.824 139.07 214.225 139.151 214.935C139.228 215.614 139.669 215.907 140.474 215.816ZM139.554 210.397C139.151 210.443 138.855 210.573 138.664 210.788C138.463 211.004 138.383 211.286 138.422 211.636C138.46 211.965 138.6 212.207 138.843 212.361C139.076 212.528 139.395 212.589 139.797 212.543L142.341 212.255L142.098 210.108L139.554 210.397ZM129.534 217.529L128.414 217.536L128.366 209.536L129.742 209.528L129.776 215.144L134.174 209.501L135.294 209.494L135.342 217.494L133.966 217.503L133.932 211.887L129.534 217.529ZM119.273 209.962L118.176 209.837L118.57 206.387L119.937 206.543L119.694 208.674L125.655 209.354L125.898 207.224L127.266 207.38L126.872 210.829L125.902 210.719C125.314 211.36 124.948 212.311 124.804 213.572L124.383 217.26L118.517 216.591L119.273 209.962ZM124.328 210.539L120.64 210.118L120.031 215.46L123.163 215.817L123.437 213.416C123.572 212.229 123.869 211.27 124.328 210.539ZM115.462 211.316C115.489 210.589 115.297 209.975 114.888 209.474C114.468 208.972 113.889 208.634 113.152 208.463C112.123 208.224 111.287 208.429 110.643 209.079L109.642 208.156C110.673 207.159 111.953 206.837 113.48 207.192C114.716 207.48 115.635 208.098 116.235 209.048C116.823 210.006 116.979 211.077 116.704 212.262C116.431 213.436 115.825 214.324 114.885 214.927C113.946 215.53 112.873 215.692 111.668 215.412C110.525 215.146 109.69 214.525 109.161 213.548C108.62 212.578 108.481 211.528 108.744 210.395C108.79 210.198 108.852 209.999 108.932 209.798L115.462 211.316ZM111.965 214.134C112.692 214.303 113.343 214.235 113.918 213.93C114.49 213.636 114.913 213.16 115.187 212.5L109.981 211.291C109.924 212.055 110.085 212.684 110.463 213.177C110.841 213.67 111.342 213.989 111.965 214.134ZM101.46 204.652C102.511 204.174 103.587 204.137 104.688 204.541C105.789 204.946 106.586 205.67 107.078 206.714C107.559 207.754 107.596 208.83 107.188 209.942C106.78 211.053 106.056 211.85 105.015 212.331C103.965 212.809 102.889 212.846 101.787 212.442C100.686 212.037 99.8894 211.313 99.3978 210.269C98.9062 209.225 98.8644 208.147 99.2725 207.036C99.6806 205.924 100.41 205.13 101.46 204.652ZM104.219 205.818C103.468 205.542 102.744 205.566 102.046 205.889C101.347 206.212 100.859 206.754 100.579 207.515C100.3 208.276 100.322 209.006 100.645 209.704C100.968 210.402 101.505 210.889 102.256 211.165C102.997 211.437 103.717 211.412 104.415 211.088C105.113 210.765 105.602 210.223 105.881 209.462C106.161 208.701 106.139 207.972 105.815 207.273C105.492 206.575 104.96 206.09 104.219 205.818ZM85.5808 204.346L89.5645 197.409L90.7717 198.102L87.4492 203.888L91.0429 205.951L94.3653 200.165L95.5725 200.858L91.5887 207.796L85.5808 204.346ZM79.3354 200.136C78.4416 199.461 77.9271 198.558 77.792 197.427C77.6505 196.305 77.9332 195.275 78.6401 194.339C79.3471 193.402 80.263 192.844 81.3879 192.664C82.5063 192.493 83.5124 192.745 84.4063 193.419C85.4619 194.216 85.9483 195.245 85.8653 196.506L88.6225 192.853L89.7334 193.692L82.9852 202.631L81.8742 201.792L82.7033 200.694C81.5137 201.119 80.3911 200.933 79.3354 200.136ZM83.737 194.598C83.0985 194.116 82.3983 193.928 81.6363 194.035C80.868 194.15 80.2395 194.53 79.7511 195.177C79.2627 195.824 79.0716 196.529 79.178 197.291C79.278 198.061 79.6472 198.688 80.2857 199.17C80.9327 199.658 81.6404 199.845 82.4087 199.73C83.1707 199.624 83.7959 199.247 84.2843 198.6C84.7728 197.953 84.967 197.244 84.867 196.474C84.7606 195.712 84.3839 195.087 83.737 194.598ZM74.2717 186.069C75.4257 186.06 76.4235 186.465 77.2651 187.282C78.1067 188.1 78.5396 189.085 78.5638 190.239C78.5804 191.385 78.1761 192.383 77.3511 193.232C76.5261 194.082 75.5404 194.515 74.394 194.531C73.2401 194.54 72.2423 194.136 71.4007 193.319C70.5591 192.501 70.1262 191.515 70.102 190.361C70.0778 189.208 70.4782 188.206 71.3032 187.357C72.1282 186.508 73.1178 186.079 74.2717 186.069ZM76.3174 188.258C75.7436 187.7 75.0721 187.427 74.3028 187.438C73.5336 187.449 72.8665 187.745 72.3016 188.327C71.7368 188.908 71.4599 189.584 71.471 190.353C71.4821 191.122 71.7746 191.786 72.3484 192.343C72.9145 192.893 73.5822 193.163 74.3515 193.151C75.1207 193.14 75.7878 192.844 76.3527 192.263C76.9176 191.681 77.1944 191.006 77.1833 190.236C77.1722 189.467 76.8836 188.808 76.3174 188.258ZM63.1388 183.797L62.433 182.928L68.6444 177.886L69.5116 178.955L65.1511 182.494L72.3046 182.396L73.0104 183.265L66.799 188.307L65.9318 187.239L70.2923 183.699L63.1388 183.797ZM61.6105 174.8C61.4307 173.86 61.7205 173.142 62.48 172.647C63.0428 172.28 63.6665 172.192 64.351 172.382C65.0265 172.578 65.6323 173.087 66.1683 173.909C67.0423 175.25 67.0918 176.497 66.3168 177.652L65.1025 177.049C65.6662 176.313 65.6567 175.497 65.074 174.604C64.7827 174.157 64.4645 173.874 64.1196 173.755C63.7599 173.633 63.4281 173.672 63.1244 173.87C62.8563 174.044 62.7044 174.29 62.6687 174.606C62.6271 174.913 62.717 175.237 62.9384 175.576L63.5765 176.555L62.5177 177.245L62.0457 176.521C61.8243 176.182 61.572 175.971 61.2889 175.888C60.9967 175.811 60.7077 175.866 60.4218 176.052C60.1359 176.239 59.9764 176.502 59.9434 176.842C59.9045 177.173 60.0104 177.53 60.2609 177.915C60.7504 178.665 61.3997 178.968 62.2088 178.822L62.2799 180.132C60.9883 180.299 59.9579 179.793 59.1888 178.614C58.711 177.881 58.5228 177.182 58.6242 176.518C58.7198 175.844 59.0401 175.33 59.5851 174.974C60.2641 174.532 60.9393 174.473 61.6105 174.8ZM57.4711 167.316C57.3937 166.43 57.7522 165.779 58.5465 165.365C59.1328 165.059 59.7187 165.006 60.3043 165.206C60.8754 165.401 61.351 165.862 61.731 166.591L63.5817 170.137L56.4894 173.838L54.7868 170.576C54.4166 169.866 54.3101 169.224 54.4671 168.649C54.6146 168.079 54.9768 167.643 55.5537 167.342C56.2345 166.987 56.8737 166.978 57.4711 167.316ZM55.9228 170.055L56.9666 172.055L58.8247 171.085L57.781 169.085C57.4059 168.367 56.9016 168.172 56.268 168.503C55.6628 168.819 55.5477 169.336 55.9228 170.055ZM60.6474 167.246C60.4599 166.887 60.2317 166.657 59.9627 166.557C59.6889 166.447 59.3959 166.474 59.0839 166.637C58.7907 166.79 58.6156 167.007 58.5585 167.29C58.487 167.568 58.545 167.886 58.7325 168.246L59.9169 170.515L61.8318 169.516L60.6474 167.246ZM56.6077 156.997C57.6585 157.474 58.3937 158.261 58.8133 159.356C59.233 160.452 59.2111 161.528 58.7478 162.585C58.2807 163.632 57.4943 164.368 56.3886 164.791C55.283 165.214 54.2066 165.193 53.1596 164.726C52.1089 164.248 51.3736 163.462 50.954 162.366C50.5343 161.271 50.5562 160.194 51.0195 159.137C51.4828 158.08 52.2673 157.34 53.3729 156.917C54.4786 156.493 55.5569 156.52 56.6077 156.997ZM57.5433 159.843C57.2572 159.096 56.7628 158.565 56.0602 158.252C55.3576 157.938 54.6278 157.927 53.8708 158.217C53.1137 158.507 52.5785 159.003 52.265 159.705C51.9516 160.408 51.9379 161.133 52.224 161.88C52.5063 162.617 52.9988 163.142 53.7014 163.456C54.4039 163.769 55.1338 163.781 55.8908 163.491C56.6478 163.201 57.1831 162.705 57.4965 162.002C57.81 161.3 57.8256 160.58 57.5433 159.843ZM53.7596 147.878L53.486 146.809L56.8497 145.948L57.1907 147.281L55.1136 147.812L56.6007 153.625L58.6778 153.094L59.0188 154.427L55.6552 155.287L55.4133 154.342C54.6043 154.02 53.585 154.017 52.3553 154.332L48.7591 155.252L47.2958 149.532L53.7596 147.878ZM55.0207 152.807L54.1007 149.211L48.8924 150.544L49.6736 153.597L52.0142 152.998C53.1716 152.702 54.1738 152.639 55.0207 152.807ZM54.2968 141.558C54.4597 142.752 54.1988 143.8 53.5142 144.7C52.8191 145.602 51.8797 146.134 50.696 146.296C49.5122 146.457 48.47 146.196 47.5693 145.511C46.6579 144.828 46.1208 143.889 45.958 142.695C45.8513 141.913 45.9457 141.184 46.2412 140.509C46.5261 139.835 46.9647 139.301 47.557 138.908L48.3807 139.975C47.9853 140.233 47.6896 140.591 47.4936 141.048C47.2961 141.495 47.2335 141.983 47.3055 142.511C47.4136 143.304 47.7739 143.933 48.3864 144.398C48.9975 144.853 49.7046 145.026 50.5079 144.916C51.3005 144.808 51.9304 144.453 52.3973 143.851C52.8628 143.239 53.0415 142.536 52.9334 141.744C52.8614 141.215 52.675 140.756 52.3742 140.367C52.0629 139.978 51.6808 139.702 51.2278 139.538L51.7495 138.272C52.4192 138.525 52.9875 138.943 53.4544 139.525C53.9108 140.109 54.1916 140.786 54.2968 141.558ZM45.3334 131.115L46.6766 131.067L46.7738 133.785L53.4256 133.547L53.4753 134.938L46.8236 135.176L46.9214 137.91L45.5783 137.958L45.3334 131.115ZM49.6225 124.036C50.0151 123.238 50.6585 122.867 51.5527 122.924C52.2127 122.966 52.7415 123.224 53.139 123.698C53.5265 124.16 53.6943 124.802 53.6423 125.621L53.3893 129.613L45.4053 129.107L45.6381 125.435C45.6887 124.636 45.9301 124.032 46.3623 123.621C46.7838 123.209 47.3192 123.024 47.9686 123.065C48.7351 123.114 49.2864 123.438 49.6225 124.036ZM46.8795 125.578L46.7369 127.829L48.8287 127.962L48.9713 125.71C49.0226 124.901 48.6916 124.474 47.9784 124.429C47.2971 124.386 46.9308 124.769 46.8795 125.578ZM52.3758 125.621C52.4014 125.217 52.3252 124.902 52.147 124.677C51.9696 124.441 51.7052 124.312 51.3539 124.29C51.0239 124.269 50.7614 124.365 50.5662 124.577C50.3611 124.778 50.2457 125.08 50.2201 125.485L50.0582 128.04L52.2139 128.176L52.3758 125.621ZM47.3112 113.655L47.5566 112.285L55.4313 113.695L55.186 115.065L53.8315 114.822C54.7488 115.691 55.0908 116.776 54.8577 118.078C54.6602 119.181 54.093 120.049 53.1559 120.683C52.2083 121.315 51.157 121.528 50.002 121.321C48.8471 121.114 47.9402 120.551 47.2813 119.631C46.612 118.709 46.376 117.697 46.5734 116.595C46.8066 115.293 47.504 114.394 48.6657 113.897L47.3112 113.655ZM53.5657 117.668C53.7086 116.87 53.5603 116.156 53.1207 115.524C52.6706 114.891 52.0466 114.503 51.2486 114.36C50.4506 114.217 49.7359 114.365 49.1046 114.805C48.4627 115.243 48.0703 115.861 47.9274 116.658C47.7864 117.446 47.9409 118.156 48.391 118.79C48.8306 119.421 49.4494 119.808 50.2474 119.951C51.0454 120.094 51.7653 119.946 52.4072 119.509C53.0385 119.069 53.4247 118.456 53.5657 117.668ZM53.0903 106.237L51.8264 105.78L53.8124 100.288L55.0763 100.745L53.0903 106.237ZM63.6437 93.3179C63.0575 94.3711 62.2203 95.0526 61.1322 95.3625C60.0347 95.6672 58.9641 95.529 57.9203 94.9479C56.8764 94.3668 56.1996 93.5322 55.8897 92.4441C55.5705 91.3508 55.7041 90.2776 56.2903 89.2245C56.6742 88.5348 57.187 88.0084 57.8286 87.6453C58.4609 87.277 59.1319 87.1134 59.8416 87.1544L59.8606 88.5018C59.3892 88.4713 58.9379 88.5802 58.5067 88.8285C58.0807 89.0675 57.738 89.42 57.4786 89.886C57.0895 90.5849 57.0003 91.3044 57.211 92.0443C57.4269 92.7749 57.889 93.3373 58.5973 93.7316C59.2963 94.1208 60.0132 94.2146 60.7479 94.0132C61.4878 93.8025 62.0523 93.3477 62.4414 92.6487C62.7009 92.1827 62.8271 91.7036 62.8203 91.2115C62.8042 90.7142 62.6642 90.2639 62.4003 89.8606L63.5773 89.1608C63.9612 89.7651 64.1652 90.4403 64.1895 91.1862C64.2044 91.927 64.0225 92.6376 63.6437 93.3179ZM64.2046 77.7576L70.6841 82.4497L69.8864 83.5512L65.1823 80.1448L67.0077 84.6076L66.9045 84.7502L62.0949 84.4083L66.799 87.8148L65.992 88.9292L59.5125 84.2371L60.3852 83.0319L65.1371 83.3716L63.3318 78.9628L64.2046 77.7576ZM75.922 75.2126C75.9497 76.3663 75.5616 77.3705 74.7576 78.2251C73.9537 79.0797 72.9751 79.5284 71.8219 79.5712C70.676 79.6063 69.6718 79.2181 68.8094 78.4069C67.947 77.5956 67.4983 76.617 67.4633 75.4711C67.4356 74.3174 67.8237 73.3133 68.6276 72.4587C69.4316 71.604 70.4102 71.1553 71.5634 71.1125C72.7166 71.0697 73.7244 71.454 74.5868 72.2652C75.4492 73.0765 75.8943 74.059 75.922 75.2126ZM73.767 77.2933C74.3152 76.7106 74.5775 76.0347 74.554 75.2658C74.5305 74.4968 74.2235 73.8346 73.6331 73.2791C73.0426 72.7237 72.3629 72.4577 71.5939 72.4812C70.8249 72.5047 70.1664 72.8078 69.6182 73.3905C69.0774 73.9654 68.8187 74.6374 68.8422 75.4064C68.8657 76.1753 69.1727 76.8375 69.7632 77.393C70.3536 77.9484 71.0334 78.2144 71.8023 78.1909C72.5713 78.1674 73.2262 77.8682 73.767 77.2933ZM77.7296 64.1767L78.6107 65.1916L76.5568 66.9749L80.9206 72.0008L79.8695 72.9134L75.5057 67.8875L73.4398 69.6812L72.5586 68.6664L77.7296 64.1767ZM82.9388 60.2489C83.8607 59.6129 84.8797 59.4088 85.9958 59.6367C87.1059 59.8557 87.994 60.4482 88.6603 61.414C89.3266 62.3798 89.5681 63.4248 89.3847 64.5491C89.1953 65.6646 88.6397 66.5404 87.7178 67.1764C86.6291 67.9274 85.4995 68.0652 84.3292 67.5897L86.9276 71.3564L85.7818 72.1468L79.4219 62.9277L80.5677 62.1373L81.3491 63.2699C81.3201 62.007 81.85 61 82.9388 60.2489ZM86.8097 66.17C87.4682 65.7157 87.8669 65.1103 88.0058 64.3536C88.1386 63.5881 87.9748 62.8717 87.5145 62.2044C87.0542 61.5371 86.4457 61.1341 85.689 60.9952C84.9262 60.8475 84.2156 61.0008 83.5571 61.4551C82.8898 61.9155 82.4897 62.5284 82.3569 63.2938C82.2181 64.0505 82.3788 64.7625 82.8391 65.4298C83.2995 66.0971 83.911 66.5046 84.6738 66.6522C85.4304 66.7911 86.1424 66.6304 86.8097 66.17ZM91.6653 60.4482C92.1196 61.0171 92.6651 61.3576 93.3017 61.4698C93.9478 61.5771 94.6063 61.4551 95.2773 61.1039C96.2129 60.6142 96.7127 59.9131 96.7769 59.0006L98.1375 59.0469C98.0066 60.4758 97.2466 61.5539 95.8574 62.2811C94.7328 62.8698 93.6331 62.9999 92.5583 62.6716C91.488 62.3289 90.6708 61.6189 90.1069 60.5416C89.5479 59.4737 89.4278 58.4048 89.7467 57.3349C90.0656 56.2651 90.7731 55.4432 91.8693 54.8694C92.9089 54.3252 93.9476 54.2511 94.9855 54.6468C96.0279 55.0282 96.8187 55.734 97.3579 56.7641C97.4519 56.9436 97.5342 57.1353 97.6048 57.3392L91.6653 60.4482ZM92.4778 56.0318C91.8163 56.378 91.3671 56.8539 91.1303 57.4595C90.8885 58.0556 90.8788 58.6927 91.1014 59.3709L95.836 56.8925C95.3808 56.276 94.849 55.9042 94.2408 55.7771C93.6325 55.6501 93.0448 55.735 92.4778 56.0318ZM102.971 50.169L103.466 51.4183L100.938 52.421L103.392 58.6082L102.098 59.1214L99.6438 52.9342L97.1005 53.9429L96.6051 52.6935L102.971 50.169ZM108.905 51.3959C109.673 51.1736 110.375 51.2203 111.011 51.5361C111.653 51.8388 112.08 52.3538 112.29 53.0813C112.501 53.8088 112.417 54.4772 112.038 55.0865C111.666 55.6826 111.096 56.0919 110.328 56.3142L107.085 57.2524L104.861 49.5676L106.198 49.1807L106.999 51.9473L108.905 51.3959ZM109.967 55.0692C110.347 54.9596 110.633 54.7601 110.827 54.4708C111.028 54.1683 111.075 53.8326 110.969 53.4637C110.862 53.0949 110.643 52.8362 110.311 52.6879C109.99 52.5366 109.64 52.5158 109.26 52.6255L107.355 53.1768L108.062 55.6206L109.967 55.0692ZM123.143 49.7059C124.001 49.9394 124.488 50.5004 124.602 51.389C124.687 52.0449 124.534 52.6131 124.145 53.0936C123.764 53.5621 123.167 53.849 122.352 53.9541L118.385 54.4659L117.361 46.5317L121.011 46.0608C121.804 45.9584 122.444 46.0802 122.93 46.4263C123.414 46.7617 123.698 47.2521 123.781 47.8974C123.879 48.6591 123.666 49.262 123.143 49.7059ZM121.107 47.3067L118.87 47.5954L119.138 49.6741L121.375 49.3855C122.179 49.2817 122.536 48.8755 122.444 48.1667C122.357 47.4896 121.911 47.203 121.107 47.3067ZM122.111 52.7107C122.513 52.6588 122.808 52.524 122.995 52.3063C123.192 52.0872 123.268 51.8031 123.223 51.454C123.181 51.1261 123.037 50.8865 122.792 50.7353C122.556 50.5722 122.237 50.5166 121.835 50.5684L119.296 50.896L119.572 53.0383L122.111 52.7107ZM132.036 45.4365L133.155 45.4144L133.313 53.4129L131.937 53.4399L131.827 47.825L127.506 53.5271L126.386 53.5491L126.229 45.5506L127.604 45.5236L127.715 51.1385L132.036 45.4365ZM142.395 52.8102L143.494 52.9132L143.17 56.37L141.8 56.2417L142 54.107L136.026 53.5474L135.826 55.682L134.456 55.5536L134.78 52.0968L135.752 52.1878C136.327 51.5347 136.674 50.5762 136.792 49.3124L137.139 45.6166L143.017 46.1673L142.395 52.8102ZM137.329 52.3356L141.025 52.6818L141.526 47.3293L138.388 47.0353L138.162 49.4407C138.051 50.6302 137.773 51.5951 137.329 52.3356ZM146.198 51.3982C146.18 52.1259 146.38 52.7373 146.796 53.2321C147.222 53.7292 147.806 54.0586 148.545 54.2202C149.577 54.4455 150.41 54.229 151.046 53.5707L152.059 54.4799C151.041 55.4913 149.766 55.8297 148.234 55.4951C146.994 55.2243 146.067 54.6179 145.454 53.676C144.854 52.726 144.683 51.657 144.943 50.469C145.2 49.2915 145.794 48.395 146.726 47.7795C147.657 47.1641 148.727 46.9884 149.936 47.2525C151.083 47.5029 151.927 48.113 152.468 49.0829C153.022 50.0446 153.175 51.0935 152.927 52.2293C152.884 52.4273 152.824 52.6271 152.747 52.8287L146.198 51.3982ZM149.656 48.5343C148.927 48.3749 148.277 48.4513 147.707 48.7635C147.138 49.0652 146.722 49.5474 146.457 50.2102L151.678 51.3505C151.725 50.5856 151.556 49.9591 151.171 49.4711C150.787 48.9831 150.282 48.6708 149.656 48.5343ZM160.297 57.8275C159.256 58.3259 158.181 58.3836 157.072 58.0009C155.963 57.6181 155.152 56.9095 154.64 55.8753C154.139 54.8445 154.081 53.7695 154.467 52.6503C154.853 51.5311 155.562 50.7205 156.593 50.2187C157.634 49.7203 158.709 49.6625 159.818 50.0453C160.927 50.4281 161.737 51.1366 162.249 52.1709C162.761 53.2052 162.824 54.2819 162.438 55.4011C162.051 56.5203 161.338 57.3291 160.297 57.8275ZM157.516 56.7153C158.272 56.9763 158.996 56.9384 159.688 56.6016C160.379 56.2648 160.857 55.7133 161.122 54.947C161.386 54.1807 161.35 53.4517 161.013 52.76C160.677 52.0683 160.13 51.5919 159.374 51.3309C158.628 51.0734 157.909 51.113 157.217 51.4498C156.525 51.7865 156.047 52.3381 155.783 53.1044C155.518 53.8707 155.555 54.5997 155.891 55.2914C156.228 55.9831 156.77 56.4578 157.516 56.7153ZM176.191 57.8952L172.306 64.8884L171.089 64.2124L174.33 58.3801L170.707 56.3675L167.467 62.1998L166.25 61.5238L170.135 54.5306L176.191 57.8952ZM182.479 61.9697C183.385 62.6273 183.917 63.5202 184.074 64.6485C184.237 65.7682 183.974 66.8029 183.285 67.7528C182.596 68.7026 181.691 69.2782 180.57 69.4797C179.455 69.6725 178.444 69.4402 177.538 68.7826C176.467 68.0061 175.961 66.9869 176.02 65.725L173.333 69.4293L172.206 68.6121L178.782 59.5455L179.908 60.3627L179.101 61.4766C180.282 61.0288 181.408 61.1932 182.479 61.9697ZM178.184 67.5913C178.832 68.061 179.535 68.2353 180.295 68.1143C181.061 67.9847 181.682 67.5918 182.158 66.9355C182.634 66.2793 182.812 65.5713 182.691 64.8115C182.576 64.0431 182.195 63.4241 181.547 62.9544C180.891 62.4785 180.18 62.3053 179.414 62.4349C178.654 62.5559 178.036 62.9446 177.56 63.6008C177.084 64.2571 176.904 64.9694 177.018 65.7378C177.139 66.4975 177.528 67.1154 178.184 67.5913ZM187.786 75.9728C186.632 75.9976 185.629 75.607 184.776 74.8009C183.924 73.9948 183.477 73.0151 183.438 71.8618C183.405 70.7158 183.796 69.7126 184.609 68.8522C185.423 67.9919 186.403 67.5456 187.549 67.5135C188.702 67.4887 189.706 67.8793 190.558 68.6854C191.411 69.4915 191.857 70.4712 191.897 71.6245C191.937 72.7778 191.55 73.7847 190.737 74.645C189.923 75.5054 188.94 75.948 187.786 75.9728ZM185.711 73.8127C186.292 74.3623 186.967 74.6263 187.736 74.6047C188.505 74.5831 189.168 74.2778 189.725 73.6887C190.282 73.0997 190.55 72.4206 190.528 71.6516C190.507 70.8825 190.205 70.2232 189.624 69.6736C189.05 69.1314 188.379 68.871 187.61 68.8926C186.841 68.9141 186.178 69.2195 185.621 69.8085C185.064 70.3976 184.796 71.0767 184.818 71.8457C184.84 72.6147 185.137 73.2704 185.711 73.8127ZM198.949 78.0571L199.67 78.9146L193.545 84.0613L192.66 83.0078L196.959 79.3948L189.809 79.6148L189.088 78.7573L195.213 73.6106L196.098 74.6641L191.798 78.277L198.949 78.0571ZM200.629 87.0301C200.824 87.9667 200.546 88.6889 199.795 89.1966C199.238 89.573 198.616 89.6716 197.929 89.4926C197.25 89.3076 196.636 88.8086 196.086 87.9956C195.19 86.67 195.12 85.4235 195.876 84.2559L197.1 84.8383C196.549 85.5844 196.572 86.3993 197.169 87.283C197.468 87.7249 197.791 88.0024 198.137 88.1156C198.499 88.2316 198.83 88.188 199.131 87.9849C199.396 87.8057 199.544 87.5578 199.574 87.241C199.611 86.9331 199.515 86.6112 199.288 86.2754L198.634 85.3078L199.681 84.5999L200.165 85.3157C200.392 85.6515 200.648 85.8584 200.933 85.9365C201.226 86.0086 201.514 85.9491 201.797 85.7579C202.08 85.5667 202.235 85.301 202.262 84.9606C202.295 84.629 202.184 84.2732 201.927 83.8932C201.425 83.1509 200.771 82.8593 199.964 83.0183L199.871 81.7097C201.16 81.521 202.199 82.0099 202.987 83.1764C203.477 83.9011 203.677 84.5965 203.586 85.2627C203.502 85.9378 203.19 86.4575 202.651 86.8219C201.98 87.2759 201.305 87.3453 200.629 87.0301ZM204.888 94.4493C204.979 95.3341 204.631 95.9899 203.843 96.4169C203.262 96.732 202.677 96.7943 202.088 96.6038C201.514 96.4176 201.031 95.9634 200.64 95.2413L198.734 91.7247L205.767 87.9124L207.521 91.1477C207.902 91.8511 208.019 92.4915 207.871 93.0692C207.732 93.6417 207.377 94.083 206.805 94.3931C206.13 94.7591 205.491 94.7778 204.888 94.4493ZM206.393 91.6862L205.318 89.7028L203.475 90.7016L204.55 92.685C204.937 93.3977 205.444 93.5838 206.072 93.2432C206.672 92.9179 206.779 92.3989 206.393 91.6862ZM201.713 94.5686C201.906 94.925 202.138 95.1512 202.409 95.2473C202.684 95.3527 202.977 95.3215 203.286 95.1538C203.577 94.9962 203.748 94.7758 203.801 94.4924C203.868 94.2134 203.805 93.8957 203.612 93.5393L202.392 91.2887L200.493 92.318L201.713 94.5686ZM205.935 104.739C204.876 104.282 204.126 103.51 203.685 102.422C203.245 101.335 203.246 100.258 203.689 99.1928C204.137 98.1371 204.909 97.3871 206.006 96.9427C207.104 96.4983 208.18 96.4997 209.236 96.9468C210.296 97.4039 211.046 98.1762 211.486 99.2637C211.926 100.351 211.925 101.428 211.482 102.493C211.039 103.559 210.269 104.314 209.171 104.758C208.074 105.203 206.995 105.196 205.935 104.739ZM204.946 101.912C205.246 102.654 205.751 103.174 206.459 103.474C207.167 103.774 207.897 103.772 208.649 103.468C209.4 103.164 209.926 102.657 210.226 101.949C210.526 101.241 210.526 100.516 210.225 99.7742C209.929 99.0425 209.427 98.5267 208.718 98.2266C208.01 97.9266 207.28 97.9287 206.529 98.233C205.777 98.5372 205.252 99.0436 204.952 99.752C204.652 100.46 204.65 101.18 204.946 101.912ZM208.932 113.813L209.222 114.879L205.872 115.792L205.51 114.464L207.579 113.9L206.001 108.111L203.932 108.675L203.571 107.348L206.92 106.435L207.177 107.376C207.991 107.685 209.01 107.673 210.235 107.339L213.816 106.363L215.369 112.059L208.932 113.813ZM207.594 108.905L208.57 112.486L213.757 111.072L212.928 108.031L210.597 108.666C209.444 108.981 208.443 109.06 207.594 108.905ZM208.497 120.141C208.315 118.95 208.558 117.898 209.228 116.986C209.908 116.073 210.839 115.525 212.02 115.345C213.201 115.164 214.247 115.408 215.159 116.078C216.081 116.746 216.634 117.676 216.816 118.867C216.936 119.647 216.853 120.378 216.569 121.058C216.295 121.736 215.865 122.277 215.28 122.68L214.439 121.627C214.83 121.362 215.119 120.999 215.308 120.539C215.498 120.089 215.553 119.6 215.472 119.073C215.351 118.282 214.98 117.659 214.36 117.204C213.742 116.759 213.032 116.598 212.231 116.721C211.44 116.842 210.816 117.207 210.359 117.817C209.903 118.437 209.736 119.142 209.857 119.933C209.938 120.46 210.132 120.916 210.439 121.3C210.757 121.684 211.143 121.953 211.599 122.11L211.098 123.385C210.424 123.143 209.849 122.734 209.373 122.16C208.907 121.584 208.615 120.911 208.497 120.141ZM217.628 130.439L216.286 130.508L216.145 127.792L209.498 128.136L209.426 126.746L216.073 126.402L215.932 123.669L217.274 123.6L217.628 130.439ZM213.47 137.575C213.093 138.38 212.456 138.762 211.561 138.723C210.901 138.693 210.367 138.445 209.961 137.978C209.565 137.523 209.385 136.885 209.422 136.064L209.6 132.068L217.592 132.425L217.428 136.102C217.392 136.901 217.162 137.51 216.738 137.929C216.324 138.348 215.792 138.543 215.142 138.514C214.375 138.48 213.818 138.167 213.47 137.575ZM216.184 135.982L216.285 133.728L214.191 133.635L214.09 135.889C214.054 136.698 214.393 137.119 215.107 137.151C215.789 137.182 216.148 136.792 216.184 135.982ZM210.688 136.041C210.67 136.446 210.752 136.759 210.934 136.981C211.116 137.213 211.383 137.337 211.735 137.353C212.065 137.368 212.326 137.267 212.517 137.051C212.718 136.847 212.828 136.542 212.846 136.137L212.96 133.58L210.802 133.483L210.688 136.041ZM215.94 147.938L215.715 149.311L207.82 148.017L208.045 146.643L209.403 146.866C208.473 146.011 208.115 144.931 208.329 143.625C208.51 142.52 209.065 141.644 209.993 140.996C210.931 140.35 211.979 140.122 213.137 140.312C214.295 140.501 215.21 141.051 215.882 141.961C216.565 142.873 216.816 143.882 216.634 144.987C216.42 146.292 215.736 147.202 214.582 147.715L215.94 147.938ZM209.627 144.017C209.496 144.817 209.655 145.529 210.104 146.154C210.563 146.78 211.193 147.159 211.993 147.29C212.792 147.422 213.505 147.263 214.13 146.814C214.765 146.367 215.148 145.743 215.28 144.943C215.409 144.154 215.244 143.446 214.785 142.819C214.336 142.194 213.711 141.816 212.911 141.685C212.111 141.554 211.394 141.712 210.758 142.159C210.134 142.608 209.756 143.227 209.627 144.017ZM210.286 155.435L211.558 155.87L209.664 161.395L208.393 160.959L210.286 155.435Z" fill="#1E1E1E"/>
<path d="M143.937 128.393C145.271 129.162 145.271 131.087 143.937 131.857L126.077 142.168C124.744 142.938 123.077 141.976 123.077 140.436L123.077 119.813C123.077 118.273 124.744 117.311 126.077 118.081L143.937 128.393Z" fill="white"/>
</svg>
