<svg width="36" height="36" viewBox="0 0 36 36" fill="none" xmlns="http://www.w3.org/2000/svg">
<rect width="36" height="36" rx="8" fill="#698468"/>
<path d="M20.7208 13.5172H15.0671V12.1379H20.7208V13.5172ZM18.6007 25.931H10.8269V23.1724H12.2403V21.7931H10.8269V18.3448H12.2403V16.9655H10.8269V13.5172H12.2403V12.1379H10.8269V9.37931H23.5477V19.7241H24.9611V9.37931C24.9611 8.62069 24.3251 8 23.5477 8H10.8269C10.0495 8 9.41343 8.62069 9.41343 9.37931V12.1379H8V13.5172H9.41343V16.9655H8V18.3448H9.41343V21.7931H8V23.1724H9.41343V25.931C9.41343 26.6897 10.0495 27.3103 10.8269 27.3103H18.6007V25.931ZM20.7208 16.9655H15.0671V18.3448H20.7208V16.9655ZM23.1237 23.3793L20.5088 23.7241L22.417 25.5172L21.9223 28L24.3251 26.8276L26.5866 28L26.0919 25.5172L28 23.7241L25.4558 23.3793L24.2544 21.1034L23.1237 23.3793Z" fill="white"/>
</svg>
