<svg width="29" height="36" viewBox="0 0 29 36" fill="none" xmlns="http://www.w3.org/2000/svg">
<path fill-rule="evenodd" clip-rule="evenodd" d="M11.016 0C10.554 0 10.1109 0.183531 9.78422 0.51022C9.45753 0.836908 9.274 1.27999 9.274 1.742C9.274 2.20401 9.45753 2.64709 9.78422 2.97378C10.1109 3.30047 10.554 3.484 11.016 3.484H14.5V6.968H11.786C10.6889 6.96761 9.61954 7.31248 8.72941 7.95374C7.83928 8.59499 7.17353 9.50011 6.82649 10.5408L4.67338 17.0037C4.25935 18.2462 4.04818 19.5473 4.048 20.857V29.614C4.048 31 4.5986 32.3293 5.57866 33.3093C6.55873 34.2894 7.88798 34.84 9.274 34.84H23.21C24.596 34.84 25.9253 34.2894 26.9053 33.3093C27.8854 32.3293 28.436 31 28.436 29.614V20.8587C28.4356 19.5478 28.2239 18.2454 27.8089 17.0019L25.6558 10.5408C25.309 9.50096 24.644 8.59644 23.755 7.95526C22.8659 7.31409 21.7977 6.96871 20.7015 6.968H17.984V3.484C18.446 3.484 18.8891 3.30047 19.2158 2.97378C19.5425 2.64709 19.726 2.20401 19.726 1.742C19.726 1.27999 19.5425 0.836908 19.2158 0.51022C18.8891 0.183531 18.446 0 17.984 0H11.016ZM12.758 19.162H7.69923C7.9344 17.9722 8.40474 16.8242 8.78798 15.678H12.758C13.22 15.678 13.6631 15.8615 13.9898 16.1882C14.3165 16.5149 14.5 16.958 14.5 17.42C14.5 17.882 14.3165 18.3251 13.9898 18.6518C13.6631 18.9785 13.22 19.162 12.758 19.162Z" fill="#698468" fill-opacity="0.3"/>
<path fill-rule="evenodd" clip-rule="evenodd" d="M7.53199 0C7.06998 0 6.6269 0.183531 6.30021 0.51022C5.97352 0.836908 5.78999 1.27999 5.78999 1.742C5.78999 2.20401 5.97352 2.64709 6.30021 2.97378C6.6269 3.30047 7.06998 3.484 7.53199 3.484H11.016V6.968H8.30196C7.2049 6.96761 6.13553 7.31248 5.2454 7.95374C4.35527 8.59499 3.68952 9.50011 3.34248 10.5408L1.18937 17.0037C0.775337 18.2462 0.564172 19.5473 0.563995 20.857V29.614C0.563995 31 1.11459 32.3293 2.09465 33.3093C3.07472 34.2894 4.40397 34.84 5.78999 34.84H19.726C21.112 34.84 22.4413 34.2894 23.4213 33.3093C24.4014 32.3293 24.952 31 24.952 29.614V20.8587C24.9516 19.5478 24.7399 18.2454 24.3249 17.0019L22.1718 10.5408C21.825 9.50096 21.16 8.59644 20.271 7.95526C19.3819 7.31409 18.3137 6.96871 17.2175 6.968H14.5V3.484C14.962 3.484 15.4051 3.30047 15.7318 2.97378C16.0585 2.64709 16.242 2.20401 16.242 1.742C16.242 1.27999 16.0585 0.836908 15.7318 0.51022C15.4051 0.183531 14.962 0 14.5 0H7.53199ZM9.27399 19.162H4.21523C4.4504 17.9722 4.92074 16.8242 5.30398 15.678H9.27399C9.736 15.678 10.1791 15.8615 10.5058 16.1882C10.8325 16.5149 11.016 16.958 11.016 17.42C11.016 17.882 10.8325 18.3251 10.5058 18.6518C10.1791 18.9785 9.736 19.162 9.27399 19.162Z" fill="#698468"/>
</svg>
