<svg width="34" height="31" viewBox="0 0 34 31" fill="none" xmlns="http://www.w3.org/2000/svg">
<path d="M6.8391 2.68839C6.82746 2.33956 6.88526 1.99193 7.00904 1.66621C7.13283 1.34048 7.32007 1.04334 7.5596 0.792472C7.79914 0.541608 8.08607 0.34216 8.40331 0.206012C8.72054 0.0698633 9.06158 -0.000198711 9.4061 4.233e-07H17.85C19.244 4.233e-07 20.383 1.12633 20.4102 2.542C20.4697 5.58689 20.8658 16.4403 23.4362 27.5556H25.1362C23.5025 20.4876 22.7477 13.5263 22.3992 8.61111H24.5378C26.078 8.61111 27.1813 9.94239 27.1388 11.3581C27.081 13.3576 27.2408 18.9944 30.1087 27.5556H32.3C32.7509 27.5556 33.1833 27.737 33.5021 28.06C33.8209 28.383 34 28.821 34 29.2778C34 29.7345 33.8209 30.1726 33.5021 30.4956C33.1833 30.8186 32.7509 31 32.3 31H1.7C1.24913 31 0.81673 30.8186 0.497918 30.4956C0.179107 30.1726 0 29.7345 0 29.2778C0 28.821 0.179107 28.383 0.497918 28.06C0.81673 27.737 1.24913 27.5556 1.7 27.5556H3.8369C6.9904 16.5609 6.936 5.79528 6.8391 2.68839Z" fill="#698468"/>
</svg>
