<svg width="22" height="18" viewBox="0 0 22 18" fill="none" xmlns="http://www.w3.org/2000/svg">
<path d="M19.71 0.654509C19.71 0.654509 21.6525 -0.102992 21.49 1.73651C21.4365 2.49401 20.951 5.14551 20.573 8.01301L19.278 16.508C19.278 16.508 19.17 17.7525 18.1985 17.969C17.2275 18.185 15.7705 17.2115 15.5005 16.995C15.2845 16.8325 11.4535 14.3975 10.1045 13.2075C9.72652 12.8825 9.29452 12.2335 10.1585 11.476L15.8245 6.06501C16.472 5.41501 17.1195 3.90001 14.4215 5.74001L6.86653 10.88C6.86653 10.88 6.00303 11.4215 4.38453 10.9345L0.876525 9.85201C0.876525 9.85201 -0.418475 9.04051 1.79402 8.22901C7.19053 5.68601 13.828 3.08901 19.7095 0.654009" fill="#EFEFEC"/>
</svg>
